G04 #@! TF.GenerationSoftware,KiCad,Pcbnew,8.0.5*
G04 #@! TF.CreationDate,2024-10-11T22:43:59-06:00*
G04 #@! TF.ProjectId,CanLite,43616e4c-6974-4652-9e6b-696361645f70,rev?*
G04 #@! TF.SameCoordinates,Original*
G04 #@! TF.FileFunction,Legend,Top*
G04 #@! TF.FilePolarity,Positive*
%FSLAX46Y46*%
G04 Gerber Fmt 4.6, Leading zero omitted, Abs format (unit mm)*
G04 Created by KiCad (PCBNEW 8.0.5) date 2024-10-11 22:43:59*
%MOMM*%
%LPD*%
G01*
G04 APERTURE LIST*
%ADD10C,0.150000*%
%ADD11C,0.125000*%
%ADD12C,0.120000*%
G04 APERTURE END LIST*
D10*
X106069048Y-62112295D02*
X106069048Y-61312295D01*
X106602381Y-61312295D02*
X106754762Y-61312295D01*
X106754762Y-61312295D02*
X106830952Y-61350390D01*
X106830952Y-61350390D02*
X106907143Y-61426580D01*
X106907143Y-61426580D02*
X106945238Y-61578961D01*
X106945238Y-61578961D02*
X106945238Y-61845628D01*
X106945238Y-61845628D02*
X106907143Y-61998009D01*
X106907143Y-61998009D02*
X106830952Y-62074200D01*
X106830952Y-62074200D02*
X106754762Y-62112295D01*
X106754762Y-62112295D02*
X106602381Y-62112295D01*
X106602381Y-62112295D02*
X106526190Y-62074200D01*
X106526190Y-62074200D02*
X106450000Y-61998009D01*
X106450000Y-61998009D02*
X106411904Y-61845628D01*
X106411904Y-61845628D02*
X106411904Y-61578961D01*
X106411904Y-61578961D02*
X106450000Y-61426580D01*
X106450000Y-61426580D02*
X106526190Y-61350390D01*
X106526190Y-61350390D02*
X106602381Y-61312295D01*
X107211904Y-61312295D02*
X107707142Y-61312295D01*
X107707142Y-61312295D02*
X107440476Y-61617057D01*
X107440476Y-61617057D02*
X107554761Y-61617057D01*
X107554761Y-61617057D02*
X107630952Y-61655152D01*
X107630952Y-61655152D02*
X107669047Y-61693247D01*
X107669047Y-61693247D02*
X107707142Y-61769438D01*
X107707142Y-61769438D02*
X107707142Y-61959914D01*
X107707142Y-61959914D02*
X107669047Y-62036104D01*
X107669047Y-62036104D02*
X107630952Y-62074200D01*
X107630952Y-62074200D02*
X107554761Y-62112295D01*
X107554761Y-62112295D02*
X107326190Y-62112295D01*
X107326190Y-62112295D02*
X107249999Y-62074200D01*
X107249999Y-62074200D02*
X107211904Y-62036104D01*
X108011904Y-61388485D02*
X108050000Y-61350390D01*
X108050000Y-61350390D02*
X108126190Y-61312295D01*
X108126190Y-61312295D02*
X108316666Y-61312295D01*
X108316666Y-61312295D02*
X108392857Y-61350390D01*
X108392857Y-61350390D02*
X108430952Y-61388485D01*
X108430952Y-61388485D02*
X108469047Y-61464676D01*
X108469047Y-61464676D02*
X108469047Y-61540866D01*
X108469047Y-61540866D02*
X108430952Y-61655152D01*
X108430952Y-61655152D02*
X107973809Y-62112295D01*
X107973809Y-62112295D02*
X108469047Y-62112295D01*
X106069048Y-67112295D02*
X106069048Y-66312295D01*
X106602381Y-66312295D02*
X106754762Y-66312295D01*
X106754762Y-66312295D02*
X106830952Y-66350390D01*
X106830952Y-66350390D02*
X106907143Y-66426580D01*
X106907143Y-66426580D02*
X106945238Y-66578961D01*
X106945238Y-66578961D02*
X106945238Y-66845628D01*
X106945238Y-66845628D02*
X106907143Y-66998009D01*
X106907143Y-66998009D02*
X106830952Y-67074200D01*
X106830952Y-67074200D02*
X106754762Y-67112295D01*
X106754762Y-67112295D02*
X106602381Y-67112295D01*
X106602381Y-67112295D02*
X106526190Y-67074200D01*
X106526190Y-67074200D02*
X106450000Y-66998009D01*
X106450000Y-66998009D02*
X106411904Y-66845628D01*
X106411904Y-66845628D02*
X106411904Y-66578961D01*
X106411904Y-66578961D02*
X106450000Y-66426580D01*
X106450000Y-66426580D02*
X106526190Y-66350390D01*
X106526190Y-66350390D02*
X106602381Y-66312295D01*
X107249999Y-66388485D02*
X107288095Y-66350390D01*
X107288095Y-66350390D02*
X107364285Y-66312295D01*
X107364285Y-66312295D02*
X107554761Y-66312295D01*
X107554761Y-66312295D02*
X107630952Y-66350390D01*
X107630952Y-66350390D02*
X107669047Y-66388485D01*
X107669047Y-66388485D02*
X107707142Y-66464676D01*
X107707142Y-66464676D02*
X107707142Y-66540866D01*
X107707142Y-66540866D02*
X107669047Y-66655152D01*
X107669047Y-66655152D02*
X107211904Y-67112295D01*
X107211904Y-67112295D02*
X107707142Y-67112295D01*
X107973809Y-66312295D02*
X108507143Y-66312295D01*
X108507143Y-66312295D02*
X108164285Y-67112295D01*
X130752380Y-94159580D02*
X130704761Y-94207200D01*
X130704761Y-94207200D02*
X130561904Y-94254819D01*
X130561904Y-94254819D02*
X130466666Y-94254819D01*
X130466666Y-94254819D02*
X130323809Y-94207200D01*
X130323809Y-94207200D02*
X130228571Y-94111961D01*
X130228571Y-94111961D02*
X130180952Y-94016723D01*
X130180952Y-94016723D02*
X130133333Y-93826247D01*
X130133333Y-93826247D02*
X130133333Y-93683390D01*
X130133333Y-93683390D02*
X130180952Y-93492914D01*
X130180952Y-93492914D02*
X130228571Y-93397676D01*
X130228571Y-93397676D02*
X130323809Y-93302438D01*
X130323809Y-93302438D02*
X130466666Y-93254819D01*
X130466666Y-93254819D02*
X130561904Y-93254819D01*
X130561904Y-93254819D02*
X130704761Y-93302438D01*
X130704761Y-93302438D02*
X130752380Y-93350057D01*
X131133333Y-93969104D02*
X131609523Y-93969104D01*
X131038095Y-94254819D02*
X131371428Y-93254819D01*
X131371428Y-93254819D02*
X131704761Y-94254819D01*
X132038095Y-94254819D02*
X132038095Y-93254819D01*
X132038095Y-93254819D02*
X132609523Y-94254819D01*
X132609523Y-94254819D02*
X132609523Y-93254819D01*
X133561904Y-94254819D02*
X133085714Y-94254819D01*
X133085714Y-94254819D02*
X133085714Y-93254819D01*
D11*
X134346335Y-57038156D02*
X134179669Y-56752442D01*
X134060621Y-57038156D02*
X134060621Y-56438156D01*
X134060621Y-56438156D02*
X134251097Y-56438156D01*
X134251097Y-56438156D02*
X134298716Y-56466727D01*
X134298716Y-56466727D02*
X134322526Y-56495299D01*
X134322526Y-56495299D02*
X134346335Y-56552442D01*
X134346335Y-56552442D02*
X134346335Y-56638156D01*
X134346335Y-56638156D02*
X134322526Y-56695299D01*
X134322526Y-56695299D02*
X134298716Y-56723870D01*
X134298716Y-56723870D02*
X134251097Y-56752442D01*
X134251097Y-56752442D02*
X134060621Y-56752442D01*
X134513002Y-56438156D02*
X134846335Y-57038156D01*
X134846335Y-56438156D02*
X134513002Y-57038156D01*
X134108241Y-57404122D02*
X134393955Y-57404122D01*
X134251098Y-58004122D02*
X134251098Y-57404122D01*
X134513002Y-57404122D02*
X134846335Y-58004122D01*
X134846335Y-57404122D02*
X134513002Y-58004122D01*
X132393956Y-58970088D02*
X132108242Y-58970088D01*
X132251099Y-58970088D02*
X132251099Y-58370088D01*
X132251099Y-58370088D02*
X132203480Y-58455802D01*
X132203480Y-58455802D02*
X132155861Y-58512945D01*
X132155861Y-58512945D02*
X132108242Y-58541517D01*
X132584432Y-58427231D02*
X132608241Y-58398659D01*
X132608241Y-58398659D02*
X132655860Y-58370088D01*
X132655860Y-58370088D02*
X132774908Y-58370088D01*
X132774908Y-58370088D02*
X132822527Y-58398659D01*
X132822527Y-58398659D02*
X132846336Y-58427231D01*
X132846336Y-58427231D02*
X132870146Y-58484374D01*
X132870146Y-58484374D02*
X132870146Y-58541517D01*
X132870146Y-58541517D02*
X132846336Y-58627231D01*
X132846336Y-58627231D02*
X132560622Y-58970088D01*
X132560622Y-58970088D02*
X132870146Y-58970088D01*
X133013003Y-58370088D02*
X133179669Y-58970088D01*
X133179669Y-58970088D02*
X133346336Y-58370088D01*
X133393955Y-59027231D02*
X133774907Y-59027231D01*
X133893954Y-58970088D02*
X133893954Y-58370088D01*
X134132049Y-58970088D02*
X134132049Y-58370088D01*
X134132049Y-58370088D02*
X134417763Y-58970088D01*
X134417763Y-58970088D02*
X134417763Y-58370088D01*
X134584431Y-58370088D02*
X134870145Y-58370088D01*
X134727288Y-58970088D02*
X134727288Y-58370088D01*
X133774906Y-59364625D02*
X133727287Y-59336054D01*
X133727287Y-59336054D02*
X133655858Y-59336054D01*
X133655858Y-59336054D02*
X133584430Y-59364625D01*
X133584430Y-59364625D02*
X133536811Y-59421768D01*
X133536811Y-59421768D02*
X133513001Y-59478911D01*
X133513001Y-59478911D02*
X133489192Y-59593197D01*
X133489192Y-59593197D02*
X133489192Y-59678911D01*
X133489192Y-59678911D02*
X133513001Y-59793197D01*
X133513001Y-59793197D02*
X133536811Y-59850340D01*
X133536811Y-59850340D02*
X133584430Y-59907483D01*
X133584430Y-59907483D02*
X133655858Y-59936054D01*
X133655858Y-59936054D02*
X133703477Y-59936054D01*
X133703477Y-59936054D02*
X133774906Y-59907483D01*
X133774906Y-59907483D02*
X133798715Y-59878911D01*
X133798715Y-59878911D02*
X133798715Y-59678911D01*
X133798715Y-59678911D02*
X133703477Y-59678911D01*
X134013001Y-59936054D02*
X134013001Y-59336054D01*
X134013001Y-59336054D02*
X134298715Y-59936054D01*
X134298715Y-59936054D02*
X134298715Y-59336054D01*
X134536811Y-59936054D02*
X134536811Y-59336054D01*
X134536811Y-59336054D02*
X134655859Y-59336054D01*
X134655859Y-59336054D02*
X134727287Y-59364625D01*
X134727287Y-59364625D02*
X134774906Y-59421768D01*
X134774906Y-59421768D02*
X134798716Y-59478911D01*
X134798716Y-59478911D02*
X134822525Y-59593197D01*
X134822525Y-59593197D02*
X134822525Y-59678911D01*
X134822525Y-59678911D02*
X134798716Y-59793197D01*
X134798716Y-59793197D02*
X134774906Y-59850340D01*
X134774906Y-59850340D02*
X134727287Y-59907483D01*
X134727287Y-59907483D02*
X134655859Y-59936054D01*
X134655859Y-59936054D02*
X134536811Y-59936054D01*
X133774906Y-60330591D02*
X133727287Y-60302020D01*
X133727287Y-60302020D02*
X133655858Y-60302020D01*
X133655858Y-60302020D02*
X133584430Y-60330591D01*
X133584430Y-60330591D02*
X133536811Y-60387734D01*
X133536811Y-60387734D02*
X133513001Y-60444877D01*
X133513001Y-60444877D02*
X133489192Y-60559163D01*
X133489192Y-60559163D02*
X133489192Y-60644877D01*
X133489192Y-60644877D02*
X133513001Y-60759163D01*
X133513001Y-60759163D02*
X133536811Y-60816306D01*
X133536811Y-60816306D02*
X133584430Y-60873449D01*
X133584430Y-60873449D02*
X133655858Y-60902020D01*
X133655858Y-60902020D02*
X133703477Y-60902020D01*
X133703477Y-60902020D02*
X133774906Y-60873449D01*
X133774906Y-60873449D02*
X133798715Y-60844877D01*
X133798715Y-60844877D02*
X133798715Y-60644877D01*
X133798715Y-60644877D02*
X133703477Y-60644877D01*
X134013001Y-60902020D02*
X134013001Y-60302020D01*
X134013001Y-60302020D02*
X134298715Y-60902020D01*
X134298715Y-60902020D02*
X134298715Y-60302020D01*
X134536811Y-60902020D02*
X134536811Y-60302020D01*
X134536811Y-60302020D02*
X134655859Y-60302020D01*
X134655859Y-60302020D02*
X134727287Y-60330591D01*
X134727287Y-60330591D02*
X134774906Y-60387734D01*
X134774906Y-60387734D02*
X134798716Y-60444877D01*
X134798716Y-60444877D02*
X134822525Y-60559163D01*
X134822525Y-60559163D02*
X134822525Y-60644877D01*
X134822525Y-60644877D02*
X134798716Y-60759163D01*
X134798716Y-60759163D02*
X134774906Y-60816306D01*
X134774906Y-60816306D02*
X134727287Y-60873449D01*
X134727287Y-60873449D02*
X134655859Y-60902020D01*
X134655859Y-60902020D02*
X134536811Y-60902020D01*
X133013001Y-61867986D02*
X133013001Y-61267986D01*
X133013001Y-61267986D02*
X133203477Y-61267986D01*
X133203477Y-61267986D02*
X133251096Y-61296557D01*
X133251096Y-61296557D02*
X133274906Y-61325129D01*
X133274906Y-61325129D02*
X133298715Y-61382272D01*
X133298715Y-61382272D02*
X133298715Y-61467986D01*
X133298715Y-61467986D02*
X133274906Y-61525129D01*
X133274906Y-61525129D02*
X133251096Y-61553700D01*
X133251096Y-61553700D02*
X133203477Y-61582272D01*
X133203477Y-61582272D02*
X133013001Y-61582272D01*
X133798715Y-61867986D02*
X133632049Y-61582272D01*
X133513001Y-61867986D02*
X133513001Y-61267986D01*
X133513001Y-61267986D02*
X133703477Y-61267986D01*
X133703477Y-61267986D02*
X133751096Y-61296557D01*
X133751096Y-61296557D02*
X133774906Y-61325129D01*
X133774906Y-61325129D02*
X133798715Y-61382272D01*
X133798715Y-61382272D02*
X133798715Y-61467986D01*
X133798715Y-61467986D02*
X133774906Y-61525129D01*
X133774906Y-61525129D02*
X133751096Y-61553700D01*
X133751096Y-61553700D02*
X133703477Y-61582272D01*
X133703477Y-61582272D02*
X133513001Y-61582272D01*
X134108239Y-61267986D02*
X134203477Y-61267986D01*
X134203477Y-61267986D02*
X134251096Y-61296557D01*
X134251096Y-61296557D02*
X134298715Y-61353700D01*
X134298715Y-61353700D02*
X134322525Y-61467986D01*
X134322525Y-61467986D02*
X134322525Y-61667986D01*
X134322525Y-61667986D02*
X134298715Y-61782272D01*
X134298715Y-61782272D02*
X134251096Y-61839415D01*
X134251096Y-61839415D02*
X134203477Y-61867986D01*
X134203477Y-61867986D02*
X134108239Y-61867986D01*
X134108239Y-61867986D02*
X134060620Y-61839415D01*
X134060620Y-61839415D02*
X134013001Y-61782272D01*
X134013001Y-61782272D02*
X133989192Y-61667986D01*
X133989192Y-61667986D02*
X133989192Y-61467986D01*
X133989192Y-61467986D02*
X134013001Y-61353700D01*
X134013001Y-61353700D02*
X134060620Y-61296557D01*
X134060620Y-61296557D02*
X134108239Y-61267986D01*
X134798716Y-61296557D02*
X134751097Y-61267986D01*
X134751097Y-61267986D02*
X134679668Y-61267986D01*
X134679668Y-61267986D02*
X134608240Y-61296557D01*
X134608240Y-61296557D02*
X134560621Y-61353700D01*
X134560621Y-61353700D02*
X134536811Y-61410843D01*
X134536811Y-61410843D02*
X134513002Y-61525129D01*
X134513002Y-61525129D02*
X134513002Y-61610843D01*
X134513002Y-61610843D02*
X134536811Y-61725129D01*
X134536811Y-61725129D02*
X134560621Y-61782272D01*
X134560621Y-61782272D02*
X134608240Y-61839415D01*
X134608240Y-61839415D02*
X134679668Y-61867986D01*
X134679668Y-61867986D02*
X134727287Y-61867986D01*
X134727287Y-61867986D02*
X134798716Y-61839415D01*
X134798716Y-61839415D02*
X134822525Y-61810843D01*
X134822525Y-61810843D02*
X134822525Y-61610843D01*
X134822525Y-61610843D02*
X134727287Y-61610843D01*
D10*
X136233333Y-94159580D02*
X136185714Y-94207200D01*
X136185714Y-94207200D02*
X136042857Y-94254819D01*
X136042857Y-94254819D02*
X135947619Y-94254819D01*
X135947619Y-94254819D02*
X135804762Y-94207200D01*
X135804762Y-94207200D02*
X135709524Y-94111961D01*
X135709524Y-94111961D02*
X135661905Y-94016723D01*
X135661905Y-94016723D02*
X135614286Y-93826247D01*
X135614286Y-93826247D02*
X135614286Y-93683390D01*
X135614286Y-93683390D02*
X135661905Y-93492914D01*
X135661905Y-93492914D02*
X135709524Y-93397676D01*
X135709524Y-93397676D02*
X135804762Y-93302438D01*
X135804762Y-93302438D02*
X135947619Y-93254819D01*
X135947619Y-93254819D02*
X136042857Y-93254819D01*
X136042857Y-93254819D02*
X136185714Y-93302438D01*
X136185714Y-93302438D02*
X136233333Y-93350057D01*
X136614286Y-93969104D02*
X137090476Y-93969104D01*
X136519048Y-94254819D02*
X136852381Y-93254819D01*
X136852381Y-93254819D02*
X137185714Y-94254819D01*
X137519048Y-94254819D02*
X137519048Y-93254819D01*
X137519048Y-93254819D02*
X138090476Y-94254819D01*
X138090476Y-94254819D02*
X138090476Y-93254819D01*
X138566667Y-94254819D02*
X138566667Y-93254819D01*
X138566667Y-93731009D02*
X139138095Y-93731009D01*
X139138095Y-94254819D02*
X139138095Y-93254819D01*
X109638095Y-93873866D02*
X110400000Y-93873866D01*
X110019047Y-94254819D02*
X110019047Y-93492914D01*
X111399999Y-94254819D02*
X110828571Y-94254819D01*
X111114285Y-94254819D02*
X111114285Y-93254819D01*
X111114285Y-93254819D02*
X111019047Y-93397676D01*
X111019047Y-93397676D02*
X110923809Y-93492914D01*
X110923809Y-93492914D02*
X110828571Y-93540533D01*
X111780952Y-93350057D02*
X111828571Y-93302438D01*
X111828571Y-93302438D02*
X111923809Y-93254819D01*
X111923809Y-93254819D02*
X112161904Y-93254819D01*
X112161904Y-93254819D02*
X112257142Y-93302438D01*
X112257142Y-93302438D02*
X112304761Y-93350057D01*
X112304761Y-93350057D02*
X112352380Y-93445295D01*
X112352380Y-93445295D02*
X112352380Y-93540533D01*
X112352380Y-93540533D02*
X112304761Y-93683390D01*
X112304761Y-93683390D02*
X111733333Y-94254819D01*
X111733333Y-94254819D02*
X112352380Y-94254819D01*
X112638095Y-93254819D02*
X112971428Y-94254819D01*
X112971428Y-94254819D02*
X113304761Y-93254819D01*
X103662295Y-82795238D02*
X103662295Y-83252381D01*
X103662295Y-83023809D02*
X102862295Y-83023809D01*
X102862295Y-83023809D02*
X102976580Y-83100000D01*
X102976580Y-83100000D02*
X103052771Y-83176190D01*
X103052771Y-83176190D02*
X103090866Y-83252381D01*
X102938485Y-82490476D02*
X102900390Y-82452380D01*
X102900390Y-82452380D02*
X102862295Y-82376190D01*
X102862295Y-82376190D02*
X102862295Y-82185714D01*
X102862295Y-82185714D02*
X102900390Y-82109523D01*
X102900390Y-82109523D02*
X102938485Y-82071428D01*
X102938485Y-82071428D02*
X103014676Y-82033333D01*
X103014676Y-82033333D02*
X103090866Y-82033333D01*
X103090866Y-82033333D02*
X103205152Y-82071428D01*
X103205152Y-82071428D02*
X103662295Y-82528571D01*
X103662295Y-82528571D02*
X103662295Y-82033333D01*
X102862295Y-81804761D02*
X103662295Y-81538094D01*
X103662295Y-81538094D02*
X102862295Y-81271428D01*
X105638095Y-93302438D02*
X105542857Y-93254819D01*
X105542857Y-93254819D02*
X105400000Y-93254819D01*
X105400000Y-93254819D02*
X105257143Y-93302438D01*
X105257143Y-93302438D02*
X105161905Y-93397676D01*
X105161905Y-93397676D02*
X105114286Y-93492914D01*
X105114286Y-93492914D02*
X105066667Y-93683390D01*
X105066667Y-93683390D02*
X105066667Y-93826247D01*
X105066667Y-93826247D02*
X105114286Y-94016723D01*
X105114286Y-94016723D02*
X105161905Y-94111961D01*
X105161905Y-94111961D02*
X105257143Y-94207200D01*
X105257143Y-94207200D02*
X105400000Y-94254819D01*
X105400000Y-94254819D02*
X105495238Y-94254819D01*
X105495238Y-94254819D02*
X105638095Y-94207200D01*
X105638095Y-94207200D02*
X105685714Y-94159580D01*
X105685714Y-94159580D02*
X105685714Y-93826247D01*
X105685714Y-93826247D02*
X105495238Y-93826247D01*
X106114286Y-94254819D02*
X106114286Y-93254819D01*
X106114286Y-93254819D02*
X106685714Y-94254819D01*
X106685714Y-94254819D02*
X106685714Y-93254819D01*
X107161905Y-94254819D02*
X107161905Y-93254819D01*
X107161905Y-93254819D02*
X107400000Y-93254819D01*
X107400000Y-93254819D02*
X107542857Y-93302438D01*
X107542857Y-93302438D02*
X107638095Y-93397676D01*
X107638095Y-93397676D02*
X107685714Y-93492914D01*
X107685714Y-93492914D02*
X107733333Y-93683390D01*
X107733333Y-93683390D02*
X107733333Y-93826247D01*
X107733333Y-93826247D02*
X107685714Y-94016723D01*
X107685714Y-94016723D02*
X107638095Y-94111961D01*
X107638095Y-94111961D02*
X107542857Y-94207200D01*
X107542857Y-94207200D02*
X107400000Y-94254819D01*
X107400000Y-94254819D02*
X107161905Y-94254819D01*
X104562295Y-55990476D02*
X104562295Y-55495238D01*
X104562295Y-55495238D02*
X104867057Y-55761904D01*
X104867057Y-55761904D02*
X104867057Y-55647619D01*
X104867057Y-55647619D02*
X104905152Y-55571428D01*
X104905152Y-55571428D02*
X104943247Y-55533333D01*
X104943247Y-55533333D02*
X105019438Y-55495238D01*
X105019438Y-55495238D02*
X105209914Y-55495238D01*
X105209914Y-55495238D02*
X105286104Y-55533333D01*
X105286104Y-55533333D02*
X105324200Y-55571428D01*
X105324200Y-55571428D02*
X105362295Y-55647619D01*
X105362295Y-55647619D02*
X105362295Y-55876190D01*
X105362295Y-55876190D02*
X105324200Y-55952381D01*
X105324200Y-55952381D02*
X105286104Y-55990476D01*
X104562295Y-55266666D02*
X105362295Y-54999999D01*
X105362295Y-54999999D02*
X104562295Y-54733333D01*
X104562295Y-54542857D02*
X104562295Y-54047619D01*
X104562295Y-54047619D02*
X104867057Y-54314285D01*
X104867057Y-54314285D02*
X104867057Y-54200000D01*
X104867057Y-54200000D02*
X104905152Y-54123809D01*
X104905152Y-54123809D02*
X104943247Y-54085714D01*
X104943247Y-54085714D02*
X105019438Y-54047619D01*
X105019438Y-54047619D02*
X105209914Y-54047619D01*
X105209914Y-54047619D02*
X105286104Y-54085714D01*
X105286104Y-54085714D02*
X105324200Y-54123809D01*
X105324200Y-54123809D02*
X105362295Y-54200000D01*
X105362295Y-54200000D02*
X105362295Y-54428571D01*
X105362295Y-54428571D02*
X105324200Y-54504762D01*
X105324200Y-54504762D02*
X105286104Y-54542857D01*
X111286104Y-56433332D02*
X111324200Y-56471428D01*
X111324200Y-56471428D02*
X111362295Y-56585713D01*
X111362295Y-56585713D02*
X111362295Y-56661904D01*
X111362295Y-56661904D02*
X111324200Y-56776190D01*
X111324200Y-56776190D02*
X111248009Y-56852380D01*
X111248009Y-56852380D02*
X111171819Y-56890475D01*
X111171819Y-56890475D02*
X111019438Y-56928571D01*
X111019438Y-56928571D02*
X110905152Y-56928571D01*
X110905152Y-56928571D02*
X110752771Y-56890475D01*
X110752771Y-56890475D02*
X110676580Y-56852380D01*
X110676580Y-56852380D02*
X110600390Y-56776190D01*
X110600390Y-56776190D02*
X110562295Y-56661904D01*
X110562295Y-56661904D02*
X110562295Y-56585713D01*
X110562295Y-56585713D02*
X110600390Y-56471428D01*
X110600390Y-56471428D02*
X110638485Y-56433332D01*
X110562295Y-55747618D02*
X110562295Y-55899999D01*
X110562295Y-55899999D02*
X110600390Y-55976190D01*
X110600390Y-55976190D02*
X110638485Y-56014285D01*
X110638485Y-56014285D02*
X110752771Y-56090475D01*
X110752771Y-56090475D02*
X110905152Y-56128571D01*
X110905152Y-56128571D02*
X111209914Y-56128571D01*
X111209914Y-56128571D02*
X111286104Y-56090475D01*
X111286104Y-56090475D02*
X111324200Y-56052380D01*
X111324200Y-56052380D02*
X111362295Y-55976190D01*
X111362295Y-55976190D02*
X111362295Y-55823809D01*
X111362295Y-55823809D02*
X111324200Y-55747618D01*
X111324200Y-55747618D02*
X111286104Y-55709523D01*
X111286104Y-55709523D02*
X111209914Y-55671428D01*
X111209914Y-55671428D02*
X111019438Y-55671428D01*
X111019438Y-55671428D02*
X110943247Y-55709523D01*
X110943247Y-55709523D02*
X110905152Y-55747618D01*
X110905152Y-55747618D02*
X110867057Y-55823809D01*
X110867057Y-55823809D02*
X110867057Y-55976190D01*
X110867057Y-55976190D02*
X110905152Y-56052380D01*
X110905152Y-56052380D02*
X110943247Y-56090475D01*
X110943247Y-56090475D02*
X111019438Y-56128571D01*
X108286104Y-58383332D02*
X108324200Y-58421428D01*
X108324200Y-58421428D02*
X108362295Y-58535713D01*
X108362295Y-58535713D02*
X108362295Y-58611904D01*
X108362295Y-58611904D02*
X108324200Y-58726190D01*
X108324200Y-58726190D02*
X108248009Y-58802380D01*
X108248009Y-58802380D02*
X108171819Y-58840475D01*
X108171819Y-58840475D02*
X108019438Y-58878571D01*
X108019438Y-58878571D02*
X107905152Y-58878571D01*
X107905152Y-58878571D02*
X107752771Y-58840475D01*
X107752771Y-58840475D02*
X107676580Y-58802380D01*
X107676580Y-58802380D02*
X107600390Y-58726190D01*
X107600390Y-58726190D02*
X107562295Y-58611904D01*
X107562295Y-58611904D02*
X107562295Y-58535713D01*
X107562295Y-58535713D02*
X107600390Y-58421428D01*
X107600390Y-58421428D02*
X107638485Y-58383332D01*
X107828961Y-57697618D02*
X108362295Y-57697618D01*
X107524200Y-57888094D02*
X108095628Y-58078571D01*
X108095628Y-58078571D02*
X108095628Y-57583332D01*
X133286104Y-79633332D02*
X133324200Y-79671428D01*
X133324200Y-79671428D02*
X133362295Y-79785713D01*
X133362295Y-79785713D02*
X133362295Y-79861904D01*
X133362295Y-79861904D02*
X133324200Y-79976190D01*
X133324200Y-79976190D02*
X133248009Y-80052380D01*
X133248009Y-80052380D02*
X133171819Y-80090475D01*
X133171819Y-80090475D02*
X133019438Y-80128571D01*
X133019438Y-80128571D02*
X132905152Y-80128571D01*
X132905152Y-80128571D02*
X132752771Y-80090475D01*
X132752771Y-80090475D02*
X132676580Y-80052380D01*
X132676580Y-80052380D02*
X132600390Y-79976190D01*
X132600390Y-79976190D02*
X132562295Y-79861904D01*
X132562295Y-79861904D02*
X132562295Y-79785713D01*
X132562295Y-79785713D02*
X132600390Y-79671428D01*
X132600390Y-79671428D02*
X132638485Y-79633332D01*
X132562295Y-79366666D02*
X132562295Y-78833332D01*
X132562295Y-78833332D02*
X133362295Y-79176190D01*
X106639580Y-86166666D02*
X106687200Y-86214285D01*
X106687200Y-86214285D02*
X106734819Y-86357142D01*
X106734819Y-86357142D02*
X106734819Y-86452380D01*
X106734819Y-86452380D02*
X106687200Y-86595237D01*
X106687200Y-86595237D02*
X106591961Y-86690475D01*
X106591961Y-86690475D02*
X106496723Y-86738094D01*
X106496723Y-86738094D02*
X106306247Y-86785713D01*
X106306247Y-86785713D02*
X106163390Y-86785713D01*
X106163390Y-86785713D02*
X105972914Y-86738094D01*
X105972914Y-86738094D02*
X105877676Y-86690475D01*
X105877676Y-86690475D02*
X105782438Y-86595237D01*
X105782438Y-86595237D02*
X105734819Y-86452380D01*
X105734819Y-86452380D02*
X105734819Y-86357142D01*
X105734819Y-86357142D02*
X105782438Y-86214285D01*
X105782438Y-86214285D02*
X105830057Y-86166666D01*
X105830057Y-85785713D02*
X105782438Y-85738094D01*
X105782438Y-85738094D02*
X105734819Y-85642856D01*
X105734819Y-85642856D02*
X105734819Y-85404761D01*
X105734819Y-85404761D02*
X105782438Y-85309523D01*
X105782438Y-85309523D02*
X105830057Y-85261904D01*
X105830057Y-85261904D02*
X105925295Y-85214285D01*
X105925295Y-85214285D02*
X106020533Y-85214285D01*
X106020533Y-85214285D02*
X106163390Y-85261904D01*
X106163390Y-85261904D02*
X106734819Y-85833332D01*
X106734819Y-85833332D02*
X106734819Y-85214285D01*
X108833333Y-73539580D02*
X108785714Y-73587200D01*
X108785714Y-73587200D02*
X108642857Y-73634819D01*
X108642857Y-73634819D02*
X108547619Y-73634819D01*
X108547619Y-73634819D02*
X108404762Y-73587200D01*
X108404762Y-73587200D02*
X108309524Y-73491961D01*
X108309524Y-73491961D02*
X108261905Y-73396723D01*
X108261905Y-73396723D02*
X108214286Y-73206247D01*
X108214286Y-73206247D02*
X108214286Y-73063390D01*
X108214286Y-73063390D02*
X108261905Y-72872914D01*
X108261905Y-72872914D02*
X108309524Y-72777676D01*
X108309524Y-72777676D02*
X108404762Y-72682438D01*
X108404762Y-72682438D02*
X108547619Y-72634819D01*
X108547619Y-72634819D02*
X108642857Y-72634819D01*
X108642857Y-72634819D02*
X108785714Y-72682438D01*
X108785714Y-72682438D02*
X108833333Y-72730057D01*
X109166667Y-72634819D02*
X109785714Y-72634819D01*
X109785714Y-72634819D02*
X109452381Y-73015771D01*
X109452381Y-73015771D02*
X109595238Y-73015771D01*
X109595238Y-73015771D02*
X109690476Y-73063390D01*
X109690476Y-73063390D02*
X109738095Y-73111009D01*
X109738095Y-73111009D02*
X109785714Y-73206247D01*
X109785714Y-73206247D02*
X109785714Y-73444342D01*
X109785714Y-73444342D02*
X109738095Y-73539580D01*
X109738095Y-73539580D02*
X109690476Y-73587200D01*
X109690476Y-73587200D02*
X109595238Y-73634819D01*
X109595238Y-73634819D02*
X109309524Y-73634819D01*
X109309524Y-73634819D02*
X109214286Y-73587200D01*
X109214286Y-73587200D02*
X109166667Y-73539580D01*
X123362295Y-73090475D02*
X122562295Y-73090475D01*
X122562295Y-73090475D02*
X122562295Y-72899999D01*
X122562295Y-72899999D02*
X122600390Y-72785713D01*
X122600390Y-72785713D02*
X122676580Y-72709523D01*
X122676580Y-72709523D02*
X122752771Y-72671428D01*
X122752771Y-72671428D02*
X122905152Y-72633332D01*
X122905152Y-72633332D02*
X123019438Y-72633332D01*
X123019438Y-72633332D02*
X123171819Y-72671428D01*
X123171819Y-72671428D02*
X123248009Y-72709523D01*
X123248009Y-72709523D02*
X123324200Y-72785713D01*
X123324200Y-72785713D02*
X123362295Y-72899999D01*
X123362295Y-72899999D02*
X123362295Y-73090475D01*
X122562295Y-72366666D02*
X122562295Y-71871428D01*
X122562295Y-71871428D02*
X122867057Y-72138094D01*
X122867057Y-72138094D02*
X122867057Y-72023809D01*
X122867057Y-72023809D02*
X122905152Y-71947618D01*
X122905152Y-71947618D02*
X122943247Y-71909523D01*
X122943247Y-71909523D02*
X123019438Y-71871428D01*
X123019438Y-71871428D02*
X123209914Y-71871428D01*
X123209914Y-71871428D02*
X123286104Y-71909523D01*
X123286104Y-71909523D02*
X123324200Y-71947618D01*
X123324200Y-71947618D02*
X123362295Y-72023809D01*
X123362295Y-72023809D02*
X123362295Y-72252380D01*
X123362295Y-72252380D02*
X123324200Y-72328571D01*
X123324200Y-72328571D02*
X123286104Y-72366666D01*
X108735905Y-92804819D02*
X108735905Y-91804819D01*
X108735905Y-91804819D02*
X108974000Y-91804819D01*
X108974000Y-91804819D02*
X109116857Y-91852438D01*
X109116857Y-91852438D02*
X109212095Y-91947676D01*
X109212095Y-91947676D02*
X109259714Y-92042914D01*
X109259714Y-92042914D02*
X109307333Y-92233390D01*
X109307333Y-92233390D02*
X109307333Y-92376247D01*
X109307333Y-92376247D02*
X109259714Y-92566723D01*
X109259714Y-92566723D02*
X109212095Y-92661961D01*
X109212095Y-92661961D02*
X109116857Y-92757200D01*
X109116857Y-92757200D02*
X108974000Y-92804819D01*
X108974000Y-92804819D02*
X108735905Y-92804819D01*
X110259714Y-92804819D02*
X109688286Y-92804819D01*
X109974000Y-92804819D02*
X109974000Y-91804819D01*
X109974000Y-91804819D02*
X109878762Y-91947676D01*
X109878762Y-91947676D02*
X109783524Y-92042914D01*
X109783524Y-92042914D02*
X109688286Y-92090533D01*
X136572666Y-70618819D02*
X136572666Y-71333104D01*
X136572666Y-71333104D02*
X136525047Y-71475961D01*
X136525047Y-71475961D02*
X136429809Y-71571200D01*
X136429809Y-71571200D02*
X136286952Y-71618819D01*
X136286952Y-71618819D02*
X136191714Y-71618819D01*
X136953619Y-70618819D02*
X137572666Y-70618819D01*
X137572666Y-70618819D02*
X137239333Y-70999771D01*
X137239333Y-70999771D02*
X137382190Y-70999771D01*
X137382190Y-70999771D02*
X137477428Y-71047390D01*
X137477428Y-71047390D02*
X137525047Y-71095009D01*
X137525047Y-71095009D02*
X137572666Y-71190247D01*
X137572666Y-71190247D02*
X137572666Y-71428342D01*
X137572666Y-71428342D02*
X137525047Y-71523580D01*
X137525047Y-71523580D02*
X137477428Y-71571200D01*
X137477428Y-71571200D02*
X137382190Y-71618819D01*
X137382190Y-71618819D02*
X137096476Y-71618819D01*
X137096476Y-71618819D02*
X137001238Y-71571200D01*
X137001238Y-71571200D02*
X136953619Y-71523580D01*
X137733333Y-83162295D02*
X137733333Y-83733723D01*
X137733333Y-83733723D02*
X137695238Y-83848009D01*
X137695238Y-83848009D02*
X137619047Y-83924200D01*
X137619047Y-83924200D02*
X137504762Y-83962295D01*
X137504762Y-83962295D02*
X137428571Y-83962295D01*
X138114286Y-83962295D02*
X138114286Y-83162295D01*
X138114286Y-83162295D02*
X138419048Y-83162295D01*
X138419048Y-83162295D02*
X138495238Y-83200390D01*
X138495238Y-83200390D02*
X138533333Y-83238485D01*
X138533333Y-83238485D02*
X138571429Y-83314676D01*
X138571429Y-83314676D02*
X138571429Y-83428961D01*
X138571429Y-83428961D02*
X138533333Y-83505152D01*
X138533333Y-83505152D02*
X138495238Y-83543247D01*
X138495238Y-83543247D02*
X138419048Y-83581342D01*
X138419048Y-83581342D02*
X138114286Y-83581342D01*
X139333333Y-83962295D02*
X138876190Y-83962295D01*
X139104762Y-83962295D02*
X139104762Y-83162295D01*
X139104762Y-83162295D02*
X139028571Y-83276580D01*
X139028571Y-83276580D02*
X138952381Y-83352771D01*
X138952381Y-83352771D02*
X138876190Y-83390866D01*
X107112295Y-58383332D02*
X106731342Y-58649999D01*
X107112295Y-58840475D02*
X106312295Y-58840475D01*
X106312295Y-58840475D02*
X106312295Y-58535713D01*
X106312295Y-58535713D02*
X106350390Y-58459523D01*
X106350390Y-58459523D02*
X106388485Y-58421428D01*
X106388485Y-58421428D02*
X106464676Y-58383332D01*
X106464676Y-58383332D02*
X106578961Y-58383332D01*
X106578961Y-58383332D02*
X106655152Y-58421428D01*
X106655152Y-58421428D02*
X106693247Y-58459523D01*
X106693247Y-58459523D02*
X106731342Y-58535713D01*
X106731342Y-58535713D02*
X106731342Y-58840475D01*
X107112295Y-57621428D02*
X107112295Y-58078571D01*
X107112295Y-57849999D02*
X106312295Y-57849999D01*
X106312295Y-57849999D02*
X106426580Y-57926190D01*
X106426580Y-57926190D02*
X106502771Y-58002380D01*
X106502771Y-58002380D02*
X106540866Y-58078571D01*
X125112295Y-72633332D02*
X124731342Y-72899999D01*
X125112295Y-73090475D02*
X124312295Y-73090475D01*
X124312295Y-73090475D02*
X124312295Y-72785713D01*
X124312295Y-72785713D02*
X124350390Y-72709523D01*
X124350390Y-72709523D02*
X124388485Y-72671428D01*
X124388485Y-72671428D02*
X124464676Y-72633332D01*
X124464676Y-72633332D02*
X124578961Y-72633332D01*
X124578961Y-72633332D02*
X124655152Y-72671428D01*
X124655152Y-72671428D02*
X124693247Y-72709523D01*
X124693247Y-72709523D02*
X124731342Y-72785713D01*
X124731342Y-72785713D02*
X124731342Y-73090475D01*
X124578961Y-71947618D02*
X125112295Y-71947618D01*
X124274200Y-72138094D02*
X124845628Y-72328571D01*
X124845628Y-72328571D02*
X124845628Y-71833332D01*
X116694295Y-85985332D02*
X116313342Y-86251999D01*
X116694295Y-86442475D02*
X115894295Y-86442475D01*
X115894295Y-86442475D02*
X115894295Y-86137713D01*
X115894295Y-86137713D02*
X115932390Y-86061523D01*
X115932390Y-86061523D02*
X115970485Y-86023428D01*
X115970485Y-86023428D02*
X116046676Y-85985332D01*
X116046676Y-85985332D02*
X116160961Y-85985332D01*
X116160961Y-85985332D02*
X116237152Y-86023428D01*
X116237152Y-86023428D02*
X116275247Y-86061523D01*
X116275247Y-86061523D02*
X116313342Y-86137713D01*
X116313342Y-86137713D02*
X116313342Y-86442475D01*
X115894295Y-85718666D02*
X115894295Y-85185332D01*
X115894295Y-85185332D02*
X116694295Y-85528190D01*
X136012295Y-79633332D02*
X135631342Y-79899999D01*
X136012295Y-80090475D02*
X135212295Y-80090475D01*
X135212295Y-80090475D02*
X135212295Y-79785713D01*
X135212295Y-79785713D02*
X135250390Y-79709523D01*
X135250390Y-79709523D02*
X135288485Y-79671428D01*
X135288485Y-79671428D02*
X135364676Y-79633332D01*
X135364676Y-79633332D02*
X135478961Y-79633332D01*
X135478961Y-79633332D02*
X135555152Y-79671428D01*
X135555152Y-79671428D02*
X135593247Y-79709523D01*
X135593247Y-79709523D02*
X135631342Y-79785713D01*
X135631342Y-79785713D02*
X135631342Y-80090475D01*
X135212295Y-78947618D02*
X135212295Y-79099999D01*
X135212295Y-79099999D02*
X135250390Y-79176190D01*
X135250390Y-79176190D02*
X135288485Y-79214285D01*
X135288485Y-79214285D02*
X135402771Y-79290475D01*
X135402771Y-79290475D02*
X135555152Y-79328571D01*
X135555152Y-79328571D02*
X135859914Y-79328571D01*
X135859914Y-79328571D02*
X135936104Y-79290475D01*
X135936104Y-79290475D02*
X135974200Y-79252380D01*
X135974200Y-79252380D02*
X136012295Y-79176190D01*
X136012295Y-79176190D02*
X136012295Y-79023809D01*
X136012295Y-79023809D02*
X135974200Y-78947618D01*
X135974200Y-78947618D02*
X135936104Y-78909523D01*
X135936104Y-78909523D02*
X135859914Y-78871428D01*
X135859914Y-78871428D02*
X135669438Y-78871428D01*
X135669438Y-78871428D02*
X135593247Y-78909523D01*
X135593247Y-78909523D02*
X135555152Y-78947618D01*
X135555152Y-78947618D02*
X135517057Y-79023809D01*
X135517057Y-79023809D02*
X135517057Y-79176190D01*
X135517057Y-79176190D02*
X135555152Y-79252380D01*
X135555152Y-79252380D02*
X135593247Y-79290475D01*
X135593247Y-79290475D02*
X135669438Y-79328571D01*
X137424819Y-90166666D02*
X136948628Y-90499999D01*
X137424819Y-90738094D02*
X136424819Y-90738094D01*
X136424819Y-90738094D02*
X136424819Y-90357142D01*
X136424819Y-90357142D02*
X136472438Y-90261904D01*
X136472438Y-90261904D02*
X136520057Y-90214285D01*
X136520057Y-90214285D02*
X136615295Y-90166666D01*
X136615295Y-90166666D02*
X136758152Y-90166666D01*
X136758152Y-90166666D02*
X136853390Y-90214285D01*
X136853390Y-90214285D02*
X136901009Y-90261904D01*
X136901009Y-90261904D02*
X136948628Y-90357142D01*
X136948628Y-90357142D02*
X136948628Y-90738094D01*
X136424819Y-89261904D02*
X136424819Y-89738094D01*
X136424819Y-89738094D02*
X136901009Y-89785713D01*
X136901009Y-89785713D02*
X136853390Y-89738094D01*
X136853390Y-89738094D02*
X136805771Y-89642856D01*
X136805771Y-89642856D02*
X136805771Y-89404761D01*
X136805771Y-89404761D02*
X136853390Y-89309523D01*
X136853390Y-89309523D02*
X136901009Y-89261904D01*
X136901009Y-89261904D02*
X136996247Y-89214285D01*
X136996247Y-89214285D02*
X137234342Y-89214285D01*
X137234342Y-89214285D02*
X137329580Y-89261904D01*
X137329580Y-89261904D02*
X137377200Y-89309523D01*
X137377200Y-89309523D02*
X137424819Y-89404761D01*
X137424819Y-89404761D02*
X137424819Y-89642856D01*
X137424819Y-89642856D02*
X137377200Y-89738094D01*
X137377200Y-89738094D02*
X137329580Y-89785713D01*
X131162295Y-84709523D02*
X131809914Y-84709523D01*
X131809914Y-84709523D02*
X131886104Y-84671428D01*
X131886104Y-84671428D02*
X131924200Y-84633333D01*
X131924200Y-84633333D02*
X131962295Y-84557142D01*
X131962295Y-84557142D02*
X131962295Y-84404761D01*
X131962295Y-84404761D02*
X131924200Y-84328571D01*
X131924200Y-84328571D02*
X131886104Y-84290476D01*
X131886104Y-84290476D02*
X131809914Y-84252380D01*
X131809914Y-84252380D02*
X131162295Y-84252380D01*
X131162295Y-83947619D02*
X131162295Y-83452381D01*
X131162295Y-83452381D02*
X131467057Y-83719047D01*
X131467057Y-83719047D02*
X131467057Y-83604762D01*
X131467057Y-83604762D02*
X131505152Y-83528571D01*
X131505152Y-83528571D02*
X131543247Y-83490476D01*
X131543247Y-83490476D02*
X131619438Y-83452381D01*
X131619438Y-83452381D02*
X131809914Y-83452381D01*
X131809914Y-83452381D02*
X131886104Y-83490476D01*
X131886104Y-83490476D02*
X131924200Y-83528571D01*
X131924200Y-83528571D02*
X131962295Y-83604762D01*
X131962295Y-83604762D02*
X131962295Y-83833333D01*
X131962295Y-83833333D02*
X131924200Y-83909524D01*
X131924200Y-83909524D02*
X131886104Y-83947619D01*
X121532667Y-90710104D02*
X121494571Y-90748200D01*
X121494571Y-90748200D02*
X121380286Y-90786295D01*
X121380286Y-90786295D02*
X121304095Y-90786295D01*
X121304095Y-90786295D02*
X121189809Y-90748200D01*
X121189809Y-90748200D02*
X121113619Y-90672009D01*
X121113619Y-90672009D02*
X121075524Y-90595819D01*
X121075524Y-90595819D02*
X121037428Y-90443438D01*
X121037428Y-90443438D02*
X121037428Y-90329152D01*
X121037428Y-90329152D02*
X121075524Y-90176771D01*
X121075524Y-90176771D02*
X121113619Y-90100580D01*
X121113619Y-90100580D02*
X121189809Y-90024390D01*
X121189809Y-90024390D02*
X121304095Y-89986295D01*
X121304095Y-89986295D02*
X121380286Y-89986295D01*
X121380286Y-89986295D02*
X121494571Y-90024390D01*
X121494571Y-90024390D02*
X121532667Y-90062485D01*
X121989809Y-90329152D02*
X121913619Y-90291057D01*
X121913619Y-90291057D02*
X121875524Y-90252961D01*
X121875524Y-90252961D02*
X121837428Y-90176771D01*
X121837428Y-90176771D02*
X121837428Y-90138676D01*
X121837428Y-90138676D02*
X121875524Y-90062485D01*
X121875524Y-90062485D02*
X121913619Y-90024390D01*
X121913619Y-90024390D02*
X121989809Y-89986295D01*
X121989809Y-89986295D02*
X122142190Y-89986295D01*
X122142190Y-89986295D02*
X122218381Y-90024390D01*
X122218381Y-90024390D02*
X122256476Y-90062485D01*
X122256476Y-90062485D02*
X122294571Y-90138676D01*
X122294571Y-90138676D02*
X122294571Y-90176771D01*
X122294571Y-90176771D02*
X122256476Y-90252961D01*
X122256476Y-90252961D02*
X122218381Y-90291057D01*
X122218381Y-90291057D02*
X122142190Y-90329152D01*
X122142190Y-90329152D02*
X121989809Y-90329152D01*
X121989809Y-90329152D02*
X121913619Y-90367247D01*
X121913619Y-90367247D02*
X121875524Y-90405342D01*
X121875524Y-90405342D02*
X121837428Y-90481533D01*
X121837428Y-90481533D02*
X121837428Y-90633914D01*
X121837428Y-90633914D02*
X121875524Y-90710104D01*
X121875524Y-90710104D02*
X121913619Y-90748200D01*
X121913619Y-90748200D02*
X121989809Y-90786295D01*
X121989809Y-90786295D02*
X122142190Y-90786295D01*
X122142190Y-90786295D02*
X122218381Y-90748200D01*
X122218381Y-90748200D02*
X122256476Y-90710104D01*
X122256476Y-90710104D02*
X122294571Y-90633914D01*
X122294571Y-90633914D02*
X122294571Y-90481533D01*
X122294571Y-90481533D02*
X122256476Y-90405342D01*
X122256476Y-90405342D02*
X122218381Y-90367247D01*
X122218381Y-90367247D02*
X122142190Y-90329152D01*
X121774295Y-85985332D02*
X121393342Y-86251999D01*
X121774295Y-86442475D02*
X120974295Y-86442475D01*
X120974295Y-86442475D02*
X120974295Y-86137713D01*
X120974295Y-86137713D02*
X121012390Y-86061523D01*
X121012390Y-86061523D02*
X121050485Y-86023428D01*
X121050485Y-86023428D02*
X121126676Y-85985332D01*
X121126676Y-85985332D02*
X121240961Y-85985332D01*
X121240961Y-85985332D02*
X121317152Y-86023428D01*
X121317152Y-86023428D02*
X121355247Y-86061523D01*
X121355247Y-86061523D02*
X121393342Y-86137713D01*
X121393342Y-86137713D02*
X121393342Y-86442475D01*
X121774295Y-85604380D02*
X121774295Y-85451999D01*
X121774295Y-85451999D02*
X121736200Y-85375809D01*
X121736200Y-85375809D02*
X121698104Y-85337713D01*
X121698104Y-85337713D02*
X121583819Y-85261523D01*
X121583819Y-85261523D02*
X121431438Y-85223428D01*
X121431438Y-85223428D02*
X121126676Y-85223428D01*
X121126676Y-85223428D02*
X121050485Y-85261523D01*
X121050485Y-85261523D02*
X121012390Y-85299618D01*
X121012390Y-85299618D02*
X120974295Y-85375809D01*
X120974295Y-85375809D02*
X120974295Y-85528190D01*
X120974295Y-85528190D02*
X121012390Y-85604380D01*
X121012390Y-85604380D02*
X121050485Y-85642475D01*
X121050485Y-85642475D02*
X121126676Y-85680571D01*
X121126676Y-85680571D02*
X121317152Y-85680571D01*
X121317152Y-85680571D02*
X121393342Y-85642475D01*
X121393342Y-85642475D02*
X121431438Y-85604380D01*
X121431438Y-85604380D02*
X121469533Y-85528190D01*
X121469533Y-85528190D02*
X121469533Y-85375809D01*
X121469533Y-85375809D02*
X121431438Y-85299618D01*
X121431438Y-85299618D02*
X121393342Y-85261523D01*
X121393342Y-85261523D02*
X121317152Y-85223428D01*
X123552295Y-85883785D02*
X123171342Y-86150452D01*
X123552295Y-86340928D02*
X122752295Y-86340928D01*
X122752295Y-86340928D02*
X122752295Y-86036166D01*
X122752295Y-86036166D02*
X122790390Y-85959976D01*
X122790390Y-85959976D02*
X122828485Y-85921881D01*
X122828485Y-85921881D02*
X122904676Y-85883785D01*
X122904676Y-85883785D02*
X123018961Y-85883785D01*
X123018961Y-85883785D02*
X123095152Y-85921881D01*
X123095152Y-85921881D02*
X123133247Y-85959976D01*
X123133247Y-85959976D02*
X123171342Y-86036166D01*
X123171342Y-86036166D02*
X123171342Y-86340928D01*
X123552295Y-85121881D02*
X123552295Y-85579024D01*
X123552295Y-85350452D02*
X122752295Y-85350452D01*
X122752295Y-85350452D02*
X122866580Y-85426643D01*
X122866580Y-85426643D02*
X122942771Y-85502833D01*
X122942771Y-85502833D02*
X122980866Y-85579024D01*
X122752295Y-84626642D02*
X122752295Y-84550452D01*
X122752295Y-84550452D02*
X122790390Y-84474261D01*
X122790390Y-84474261D02*
X122828485Y-84436166D01*
X122828485Y-84436166D02*
X122904676Y-84398071D01*
X122904676Y-84398071D02*
X123057057Y-84359976D01*
X123057057Y-84359976D02*
X123247533Y-84359976D01*
X123247533Y-84359976D02*
X123399914Y-84398071D01*
X123399914Y-84398071D02*
X123476104Y-84436166D01*
X123476104Y-84436166D02*
X123514200Y-84474261D01*
X123514200Y-84474261D02*
X123552295Y-84550452D01*
X123552295Y-84550452D02*
X123552295Y-84626642D01*
X123552295Y-84626642D02*
X123514200Y-84702833D01*
X123514200Y-84702833D02*
X123476104Y-84740928D01*
X123476104Y-84740928D02*
X123399914Y-84779023D01*
X123399914Y-84779023D02*
X123247533Y-84817119D01*
X123247533Y-84817119D02*
X123057057Y-84817119D01*
X123057057Y-84817119D02*
X122904676Y-84779023D01*
X122904676Y-84779023D02*
X122828485Y-84740928D01*
X122828485Y-84740928D02*
X122790390Y-84702833D01*
X122790390Y-84702833D02*
X122752295Y-84626642D01*
X107679580Y-54916666D02*
X107727200Y-54964285D01*
X107727200Y-54964285D02*
X107774819Y-55107142D01*
X107774819Y-55107142D02*
X107774819Y-55202380D01*
X107774819Y-55202380D02*
X107727200Y-55345237D01*
X107727200Y-55345237D02*
X107631961Y-55440475D01*
X107631961Y-55440475D02*
X107536723Y-55488094D01*
X107536723Y-55488094D02*
X107346247Y-55535713D01*
X107346247Y-55535713D02*
X107203390Y-55535713D01*
X107203390Y-55535713D02*
X107012914Y-55488094D01*
X107012914Y-55488094D02*
X106917676Y-55440475D01*
X106917676Y-55440475D02*
X106822438Y-55345237D01*
X106822438Y-55345237D02*
X106774819Y-55202380D01*
X106774819Y-55202380D02*
X106774819Y-55107142D01*
X106774819Y-55107142D02*
X106822438Y-54964285D01*
X106822438Y-54964285D02*
X106870057Y-54916666D01*
X106774819Y-54011904D02*
X106774819Y-54488094D01*
X106774819Y-54488094D02*
X107251009Y-54535713D01*
X107251009Y-54535713D02*
X107203390Y-54488094D01*
X107203390Y-54488094D02*
X107155771Y-54392856D01*
X107155771Y-54392856D02*
X107155771Y-54154761D01*
X107155771Y-54154761D02*
X107203390Y-54059523D01*
X107203390Y-54059523D02*
X107251009Y-54011904D01*
X107251009Y-54011904D02*
X107346247Y-53964285D01*
X107346247Y-53964285D02*
X107584342Y-53964285D01*
X107584342Y-53964285D02*
X107679580Y-54011904D01*
X107679580Y-54011904D02*
X107727200Y-54059523D01*
X107727200Y-54059523D02*
X107774819Y-54154761D01*
X107774819Y-54154761D02*
X107774819Y-54392856D01*
X107774819Y-54392856D02*
X107727200Y-54488094D01*
X107727200Y-54488094D02*
X107679580Y-54535713D01*
X104966667Y-72562295D02*
X104700000Y-72181342D01*
X104509524Y-72562295D02*
X104509524Y-71762295D01*
X104509524Y-71762295D02*
X104814286Y-71762295D01*
X104814286Y-71762295D02*
X104890476Y-71800390D01*
X104890476Y-71800390D02*
X104928571Y-71838485D01*
X104928571Y-71838485D02*
X104966667Y-71914676D01*
X104966667Y-71914676D02*
X104966667Y-72028961D01*
X104966667Y-72028961D02*
X104928571Y-72105152D01*
X104928571Y-72105152D02*
X104890476Y-72143247D01*
X104890476Y-72143247D02*
X104814286Y-72181342D01*
X104814286Y-72181342D02*
X104509524Y-72181342D01*
X105271428Y-71838485D02*
X105309524Y-71800390D01*
X105309524Y-71800390D02*
X105385714Y-71762295D01*
X105385714Y-71762295D02*
X105576190Y-71762295D01*
X105576190Y-71762295D02*
X105652381Y-71800390D01*
X105652381Y-71800390D02*
X105690476Y-71838485D01*
X105690476Y-71838485D02*
X105728571Y-71914676D01*
X105728571Y-71914676D02*
X105728571Y-71990866D01*
X105728571Y-71990866D02*
X105690476Y-72105152D01*
X105690476Y-72105152D02*
X105233333Y-72562295D01*
X105233333Y-72562295D02*
X105728571Y-72562295D01*
X121556666Y-104170819D02*
X121556666Y-104885104D01*
X121556666Y-104885104D02*
X121509047Y-105027961D01*
X121509047Y-105027961D02*
X121413809Y-105123200D01*
X121413809Y-105123200D02*
X121270952Y-105170819D01*
X121270952Y-105170819D02*
X121175714Y-105170819D01*
X122461428Y-104504152D02*
X122461428Y-105170819D01*
X122223333Y-104123200D02*
X121985238Y-104837485D01*
X121985238Y-104837485D02*
X122604285Y-104837485D01*
X134533333Y-103830295D02*
X134533333Y-104401723D01*
X134533333Y-104401723D02*
X134495238Y-104516009D01*
X134495238Y-104516009D02*
X134419047Y-104592200D01*
X134419047Y-104592200D02*
X134304762Y-104630295D01*
X134304762Y-104630295D02*
X134228571Y-104630295D01*
X134876190Y-103906485D02*
X134914286Y-103868390D01*
X134914286Y-103868390D02*
X134990476Y-103830295D01*
X134990476Y-103830295D02*
X135180952Y-103830295D01*
X135180952Y-103830295D02*
X135257143Y-103868390D01*
X135257143Y-103868390D02*
X135295238Y-103906485D01*
X135295238Y-103906485D02*
X135333333Y-103982676D01*
X135333333Y-103982676D02*
X135333333Y-104058866D01*
X135333333Y-104058866D02*
X135295238Y-104173152D01*
X135295238Y-104173152D02*
X134838095Y-104630295D01*
X134838095Y-104630295D02*
X135333333Y-104630295D01*
X108813333Y-103830295D02*
X108813333Y-104401723D01*
X108813333Y-104401723D02*
X108775238Y-104516009D01*
X108775238Y-104516009D02*
X108699047Y-104592200D01*
X108699047Y-104592200D02*
X108584762Y-104630295D01*
X108584762Y-104630295D02*
X108508571Y-104630295D01*
X109613333Y-104630295D02*
X109156190Y-104630295D01*
X109384762Y-104630295D02*
X109384762Y-103830295D01*
X109384762Y-103830295D02*
X109308571Y-103944580D01*
X109308571Y-103944580D02*
X109232381Y-104020771D01*
X109232381Y-104020771D02*
X109156190Y-104058866D01*
X103286104Y-76933332D02*
X103324200Y-76971428D01*
X103324200Y-76971428D02*
X103362295Y-77085713D01*
X103362295Y-77085713D02*
X103362295Y-77161904D01*
X103362295Y-77161904D02*
X103324200Y-77276190D01*
X103324200Y-77276190D02*
X103248009Y-77352380D01*
X103248009Y-77352380D02*
X103171819Y-77390475D01*
X103171819Y-77390475D02*
X103019438Y-77428571D01*
X103019438Y-77428571D02*
X102905152Y-77428571D01*
X102905152Y-77428571D02*
X102752771Y-77390475D01*
X102752771Y-77390475D02*
X102676580Y-77352380D01*
X102676580Y-77352380D02*
X102600390Y-77276190D01*
X102600390Y-77276190D02*
X102562295Y-77161904D01*
X102562295Y-77161904D02*
X102562295Y-77085713D01*
X102562295Y-77085713D02*
X102600390Y-76971428D01*
X102600390Y-76971428D02*
X102638485Y-76933332D01*
X103362295Y-76171428D02*
X103362295Y-76628571D01*
X103362295Y-76399999D02*
X102562295Y-76399999D01*
X102562295Y-76399999D02*
X102676580Y-76476190D01*
X102676580Y-76476190D02*
X102752771Y-76552380D01*
X102752771Y-76552380D02*
X102790866Y-76628571D01*
X103362295Y-74533332D02*
X102981342Y-74799999D01*
X103362295Y-74990475D02*
X102562295Y-74990475D01*
X102562295Y-74990475D02*
X102562295Y-74685713D01*
X102562295Y-74685713D02*
X102600390Y-74609523D01*
X102600390Y-74609523D02*
X102638485Y-74571428D01*
X102638485Y-74571428D02*
X102714676Y-74533332D01*
X102714676Y-74533332D02*
X102828961Y-74533332D01*
X102828961Y-74533332D02*
X102905152Y-74571428D01*
X102905152Y-74571428D02*
X102943247Y-74609523D01*
X102943247Y-74609523D02*
X102981342Y-74685713D01*
X102981342Y-74685713D02*
X102981342Y-74990475D01*
X102562295Y-74266666D02*
X102562295Y-73771428D01*
X102562295Y-73771428D02*
X102867057Y-74038094D01*
X102867057Y-74038094D02*
X102867057Y-73923809D01*
X102867057Y-73923809D02*
X102905152Y-73847618D01*
X102905152Y-73847618D02*
X102943247Y-73809523D01*
X102943247Y-73809523D02*
X103019438Y-73771428D01*
X103019438Y-73771428D02*
X103209914Y-73771428D01*
X103209914Y-73771428D02*
X103286104Y-73809523D01*
X103286104Y-73809523D02*
X103324200Y-73847618D01*
X103324200Y-73847618D02*
X103362295Y-73923809D01*
X103362295Y-73923809D02*
X103362295Y-74152380D01*
X103362295Y-74152380D02*
X103324200Y-74228571D01*
X103324200Y-74228571D02*
X103286104Y-74266666D01*
X132490476Y-52962295D02*
X132490476Y-53609914D01*
X132490476Y-53609914D02*
X132528571Y-53686104D01*
X132528571Y-53686104D02*
X132566666Y-53724200D01*
X132566666Y-53724200D02*
X132642857Y-53762295D01*
X132642857Y-53762295D02*
X132795238Y-53762295D01*
X132795238Y-53762295D02*
X132871428Y-53724200D01*
X132871428Y-53724200D02*
X132909523Y-53686104D01*
X132909523Y-53686104D02*
X132947619Y-53609914D01*
X132947619Y-53609914D02*
X132947619Y-52962295D01*
X133290475Y-53038485D02*
X133328571Y-53000390D01*
X133328571Y-53000390D02*
X133404761Y-52962295D01*
X133404761Y-52962295D02*
X133595237Y-52962295D01*
X133595237Y-52962295D02*
X133671428Y-53000390D01*
X133671428Y-53000390D02*
X133709523Y-53038485D01*
X133709523Y-53038485D02*
X133747618Y-53114676D01*
X133747618Y-53114676D02*
X133747618Y-53190866D01*
X133747618Y-53190866D02*
X133709523Y-53305152D01*
X133709523Y-53305152D02*
X133252380Y-53762295D01*
X133252380Y-53762295D02*
X133747618Y-53762295D01*
X102362295Y-79709523D02*
X103009914Y-79709523D01*
X103009914Y-79709523D02*
X103086104Y-79671428D01*
X103086104Y-79671428D02*
X103124200Y-79633333D01*
X103124200Y-79633333D02*
X103162295Y-79557142D01*
X103162295Y-79557142D02*
X103162295Y-79404761D01*
X103162295Y-79404761D02*
X103124200Y-79328571D01*
X103124200Y-79328571D02*
X103086104Y-79290476D01*
X103086104Y-79290476D02*
X103009914Y-79252380D01*
X103009914Y-79252380D02*
X102362295Y-79252380D01*
X103162295Y-78452381D02*
X103162295Y-78909524D01*
X103162295Y-78680952D02*
X102362295Y-78680952D01*
X102362295Y-78680952D02*
X102476580Y-78757143D01*
X102476580Y-78757143D02*
X102552771Y-78833333D01*
X102552771Y-78833333D02*
X102590866Y-78909524D01*
X119742295Y-85985332D02*
X119361342Y-86251999D01*
X119742295Y-86442475D02*
X118942295Y-86442475D01*
X118942295Y-86442475D02*
X118942295Y-86137713D01*
X118942295Y-86137713D02*
X118980390Y-86061523D01*
X118980390Y-86061523D02*
X119018485Y-86023428D01*
X119018485Y-86023428D02*
X119094676Y-85985332D01*
X119094676Y-85985332D02*
X119208961Y-85985332D01*
X119208961Y-85985332D02*
X119285152Y-86023428D01*
X119285152Y-86023428D02*
X119323247Y-86061523D01*
X119323247Y-86061523D02*
X119361342Y-86137713D01*
X119361342Y-86137713D02*
X119361342Y-86442475D01*
X119285152Y-85528190D02*
X119247057Y-85604380D01*
X119247057Y-85604380D02*
X119208961Y-85642475D01*
X119208961Y-85642475D02*
X119132771Y-85680571D01*
X119132771Y-85680571D02*
X119094676Y-85680571D01*
X119094676Y-85680571D02*
X119018485Y-85642475D01*
X119018485Y-85642475D02*
X118980390Y-85604380D01*
X118980390Y-85604380D02*
X118942295Y-85528190D01*
X118942295Y-85528190D02*
X118942295Y-85375809D01*
X118942295Y-85375809D02*
X118980390Y-85299618D01*
X118980390Y-85299618D02*
X119018485Y-85261523D01*
X119018485Y-85261523D02*
X119094676Y-85223428D01*
X119094676Y-85223428D02*
X119132771Y-85223428D01*
X119132771Y-85223428D02*
X119208961Y-85261523D01*
X119208961Y-85261523D02*
X119247057Y-85299618D01*
X119247057Y-85299618D02*
X119285152Y-85375809D01*
X119285152Y-85375809D02*
X119285152Y-85528190D01*
X119285152Y-85528190D02*
X119323247Y-85604380D01*
X119323247Y-85604380D02*
X119361342Y-85642475D01*
X119361342Y-85642475D02*
X119437533Y-85680571D01*
X119437533Y-85680571D02*
X119589914Y-85680571D01*
X119589914Y-85680571D02*
X119666104Y-85642475D01*
X119666104Y-85642475D02*
X119704200Y-85604380D01*
X119704200Y-85604380D02*
X119742295Y-85528190D01*
X119742295Y-85528190D02*
X119742295Y-85375809D01*
X119742295Y-85375809D02*
X119704200Y-85299618D01*
X119704200Y-85299618D02*
X119666104Y-85261523D01*
X119666104Y-85261523D02*
X119589914Y-85223428D01*
X119589914Y-85223428D02*
X119437533Y-85223428D01*
X119437533Y-85223428D02*
X119361342Y-85261523D01*
X119361342Y-85261523D02*
X119323247Y-85299618D01*
X119323247Y-85299618D02*
X119285152Y-85375809D01*
X108674819Y-77166666D02*
X108674819Y-77642856D01*
X108674819Y-77642856D02*
X107674819Y-77642856D01*
X108674819Y-76309523D02*
X108674819Y-76880951D01*
X108674819Y-76595237D02*
X107674819Y-76595237D01*
X107674819Y-76595237D02*
X107817676Y-76690475D01*
X107817676Y-76690475D02*
X107912914Y-76785713D01*
X107912914Y-76785713D02*
X107960533Y-76880951D01*
X121142819Y-85669333D02*
X121857104Y-85669333D01*
X121857104Y-85669333D02*
X121999961Y-85716952D01*
X121999961Y-85716952D02*
X122095200Y-85812190D01*
X122095200Y-85812190D02*
X122142819Y-85955047D01*
X122142819Y-85955047D02*
X122142819Y-86050285D01*
X122142819Y-85193142D02*
X121142819Y-85193142D01*
X121142819Y-85193142D02*
X121142819Y-84812190D01*
X121142819Y-84812190D02*
X121190438Y-84716952D01*
X121190438Y-84716952D02*
X121238057Y-84669333D01*
X121238057Y-84669333D02*
X121333295Y-84621714D01*
X121333295Y-84621714D02*
X121476152Y-84621714D01*
X121476152Y-84621714D02*
X121571390Y-84669333D01*
X121571390Y-84669333D02*
X121619009Y-84716952D01*
X121619009Y-84716952D02*
X121666628Y-84812190D01*
X121666628Y-84812190D02*
X121666628Y-85193142D01*
X121238057Y-84240761D02*
X121190438Y-84193142D01*
X121190438Y-84193142D02*
X121142819Y-84097904D01*
X121142819Y-84097904D02*
X121142819Y-83859809D01*
X121142819Y-83859809D02*
X121190438Y-83764571D01*
X121190438Y-83764571D02*
X121238057Y-83716952D01*
X121238057Y-83716952D02*
X121333295Y-83669333D01*
X121333295Y-83669333D02*
X121428533Y-83669333D01*
X121428533Y-83669333D02*
X121571390Y-83716952D01*
X121571390Y-83716952D02*
X122142819Y-84288380D01*
X122142819Y-84288380D02*
X122142819Y-83669333D01*
X125676819Y-85732857D02*
X125200628Y-86066190D01*
X125676819Y-86304285D02*
X124676819Y-86304285D01*
X124676819Y-86304285D02*
X124676819Y-85923333D01*
X124676819Y-85923333D02*
X124724438Y-85828095D01*
X124724438Y-85828095D02*
X124772057Y-85780476D01*
X124772057Y-85780476D02*
X124867295Y-85732857D01*
X124867295Y-85732857D02*
X125010152Y-85732857D01*
X125010152Y-85732857D02*
X125105390Y-85780476D01*
X125105390Y-85780476D02*
X125153009Y-85828095D01*
X125153009Y-85828095D02*
X125200628Y-85923333D01*
X125200628Y-85923333D02*
X125200628Y-86304285D01*
X125676819Y-84780476D02*
X125676819Y-85351904D01*
X125676819Y-85066190D02*
X124676819Y-85066190D01*
X124676819Y-85066190D02*
X124819676Y-85161428D01*
X124819676Y-85161428D02*
X124914914Y-85256666D01*
X124914914Y-85256666D02*
X124962533Y-85351904D01*
X125676819Y-83828095D02*
X125676819Y-84399523D01*
X125676819Y-84113809D02*
X124676819Y-84113809D01*
X124676819Y-84113809D02*
X124819676Y-84209047D01*
X124819676Y-84209047D02*
X124914914Y-84304285D01*
X124914914Y-84304285D02*
X124962533Y-84399523D01*
D12*
X110490000Y-54162779D02*
X110490000Y-53837221D01*
X111510000Y-54162779D02*
X111510000Y-53837221D01*
X111510000Y-58837221D02*
X111510000Y-59162779D01*
X110490000Y-58837221D02*
X110490000Y-59162779D01*
X132490000Y-82362779D02*
X132490000Y-82037221D01*
X133510000Y-82362779D02*
X133510000Y-82037221D01*
X105335000Y-85738748D02*
X105335000Y-86261252D01*
X103865000Y-85738748D02*
X103865000Y-86261252D01*
X109261252Y-72235000D02*
X108738748Y-72235000D01*
X109261252Y-70765000D02*
X108738748Y-70765000D01*
X122265000Y-76235000D02*
X123735000Y-76235000D01*
X123735000Y-76235000D02*
X123735000Y-73950000D01*
X122265000Y-73950000D02*
X122265000Y-76235000D01*
X111084000Y-91350000D02*
X111084000Y-89650000D01*
X111084000Y-91350000D02*
X108424000Y-91350000D01*
X111084000Y-89650000D02*
X108424000Y-89650000D01*
X138236000Y-70164000D02*
X136906000Y-70164000D01*
X138236000Y-68834000D02*
X138236000Y-70164000D01*
X138236000Y-67564000D02*
X138236000Y-54804000D01*
X138236000Y-67564000D02*
X135576000Y-67564000D01*
X138236000Y-54804000D02*
X135576000Y-54804000D01*
X135576000Y-67564000D02*
X135576000Y-54804000D01*
X137400000Y-87300000D02*
X137400000Y-84500000D01*
X139400000Y-87300000D02*
X137400000Y-87300000D01*
X137400000Y-84500000D02*
X139400000Y-84500000D01*
X139400000Y-84500000D02*
X139400000Y-87300000D01*
X108740000Y-59162779D02*
X108740000Y-58837221D01*
X109760000Y-59162779D02*
X109760000Y-58837221D01*
X125260000Y-74587221D02*
X125260000Y-74912779D01*
X124240000Y-74587221D02*
X124240000Y-74912779D01*
X115822000Y-88300779D02*
X115822000Y-87975221D01*
X116842000Y-88300779D02*
X116842000Y-87975221D01*
X134990000Y-82362779D02*
X134990000Y-82037221D01*
X136010000Y-82362779D02*
X136010000Y-82037221D01*
X137877500Y-90237258D02*
X137877500Y-89762742D01*
X138922500Y-90237258D02*
X138922500Y-89762742D01*
X136160000Y-88600000D02*
X136160000Y-85150000D01*
X136160000Y-88600000D02*
X136160000Y-90550000D01*
X131040000Y-88600000D02*
X131040000Y-86650000D01*
X131040000Y-88600000D02*
X131040000Y-90550000D01*
X119542779Y-90934000D02*
X119217221Y-90934000D01*
X119542779Y-89914000D02*
X119217221Y-89914000D01*
X120902000Y-88300779D02*
X120902000Y-87975221D01*
X121922000Y-88300779D02*
X121922000Y-87975221D01*
X122680000Y-88300779D02*
X122680000Y-87975221D01*
X123700000Y-88300779D02*
X123700000Y-87975221D01*
X105400000Y-82400000D02*
G75*
G02*
X104000000Y-82400000I-700000J0D01*
G01*
X104000000Y-82400000D02*
G75*
G02*
X105400000Y-82400000I700000J0D01*
G01*
X107100000Y-56200000D02*
G75*
G02*
X105700000Y-56200000I-700000J0D01*
G01*
X105700000Y-56200000D02*
G75*
G02*
X107100000Y-56200000I700000J0D01*
G01*
X108265000Y-55011252D02*
X108265000Y-54488748D01*
X109735000Y-55011252D02*
X109735000Y-54488748D01*
X105412779Y-74010000D02*
X105087221Y-74010000D01*
X105412779Y-72990000D02*
X105087221Y-72990000D01*
X127960000Y-101986000D02*
X127960000Y-97536000D01*
X127960000Y-96136000D02*
X127960000Y-93836000D01*
X127960000Y-92436000D02*
X127960000Y-91716000D01*
X127960000Y-91716000D02*
X125280000Y-91716000D01*
X126480000Y-103356000D02*
X125620000Y-103356000D01*
X122980000Y-91716000D02*
X119310000Y-91716000D01*
X117010000Y-91716000D02*
X115780000Y-91716000D01*
X115780000Y-91716000D02*
X115780000Y-101536000D01*
X129110000Y-103178000D02*
X129110000Y-103918000D01*
X129110000Y-103918000D02*
X129610000Y-103918000D01*
X129350000Y-95108000D02*
X129350000Y-103678000D01*
X129350000Y-95108000D02*
X139630000Y-95108000D01*
X129350000Y-97018000D02*
X139630000Y-97018000D01*
X129350000Y-102018000D02*
X139630000Y-102018000D01*
X129350000Y-103118000D02*
X139630000Y-103118000D01*
X129350000Y-103678000D02*
X139630000Y-103678000D01*
X130700000Y-95168000D02*
X130700000Y-96168000D01*
X130700000Y-95168000D02*
X133200000Y-95168000D01*
X130700000Y-96168000D02*
X133200000Y-96168000D01*
X133200000Y-95168000D02*
X133200000Y-96168000D01*
X135780000Y-95168000D02*
X135780000Y-96168000D01*
X135780000Y-95168000D02*
X138280000Y-95168000D01*
X135780000Y-96168000D02*
X138280000Y-96168000D01*
X136006000Y-100418000D02*
X135946000Y-100478000D01*
X136160000Y-100613000D02*
X136120000Y-100653000D01*
X137941000Y-98483000D02*
X137901000Y-98523000D01*
X138115000Y-98658000D02*
X138055000Y-98717000D01*
X138280000Y-95168000D02*
X138280000Y-96168000D01*
X139630000Y-95108000D02*
X139630000Y-103678000D01*
X130663389Y-100194746D02*
G75*
G02*
X130664000Y-98940000I1286610J626747D01*
G01*
X131322638Y-98282177D02*
G75*
G02*
X132577000Y-98282000I627362J-1285873D01*
G01*
X131974280Y-100998940D02*
G75*
G02*
X131322000Y-100854000I-24280J1430940D01*
G01*
X132576871Y-100853275D02*
G75*
G02*
X131950000Y-100998000I-626872J1285276D01*
G01*
X133235823Y-98940638D02*
G75*
G02*
X133236000Y-100195000I-1285829J-627362D01*
G01*
X138460000Y-99568000D02*
G75*
G02*
X135600000Y-99568000I-1430000J0D01*
G01*
X135600000Y-99568000D02*
G75*
G02*
X138460000Y-99568000I1430000J0D01*
G01*
X103840000Y-103178000D02*
X103840000Y-103918000D01*
X103840000Y-103918000D02*
X104340000Y-103918000D01*
X104080000Y-95108000D02*
X104080000Y-103678000D01*
X104080000Y-95108000D02*
X114360000Y-95108000D01*
X104080000Y-97018000D02*
X114360000Y-97018000D01*
X104080000Y-102018000D02*
X114360000Y-102018000D01*
X104080000Y-103118000D02*
X114360000Y-103118000D01*
X104080000Y-103678000D02*
X114360000Y-103678000D01*
X105430000Y-95168000D02*
X105430000Y-96168000D01*
X105430000Y-95168000D02*
X107930000Y-95168000D01*
X105430000Y-96168000D02*
X107930000Y-96168000D01*
X107930000Y-95168000D02*
X107930000Y-96168000D01*
X110510000Y-95168000D02*
X110510000Y-96168000D01*
X110510000Y-95168000D02*
X113010000Y-95168000D01*
X110510000Y-96168000D02*
X113010000Y-96168000D01*
X110736000Y-100418000D02*
X110676000Y-100478000D01*
X110890000Y-100613000D02*
X110850000Y-100653000D01*
X112671000Y-98483000D02*
X112631000Y-98523000D01*
X112845000Y-98658000D02*
X112785000Y-98717000D01*
X113010000Y-95168000D02*
X113010000Y-96168000D01*
X114360000Y-95108000D02*
X114360000Y-103678000D01*
X105393389Y-100194746D02*
G75*
G02*
X105394000Y-98940000I1286610J626747D01*
G01*
X106052638Y-98282177D02*
G75*
G02*
X107307000Y-98282000I627362J-1285873D01*
G01*
X106704280Y-100998940D02*
G75*
G02*
X106052000Y-100854000I-24280J1430940D01*
G01*
X107306871Y-100853275D02*
G75*
G02*
X106680000Y-100998000I-626872J1285276D01*
G01*
X107965823Y-98940638D02*
G75*
G02*
X107966000Y-100195000I-1285829J-627362D01*
G01*
X113190000Y-99568000D02*
G75*
G02*
X110330000Y-99568000I-1430000J0D01*
G01*
X110330000Y-99568000D02*
G75*
G02*
X113190000Y-99568000I1430000J0D01*
G01*
X105109420Y-75990000D02*
X105390580Y-75990000D01*
X105109420Y-77010000D02*
X105390580Y-77010000D01*
X105012742Y-74477500D02*
X105487258Y-74477500D01*
X105012742Y-75522500D02*
X105487258Y-75522500D01*
X112880000Y-45135000D02*
X112880000Y-51555000D01*
X112880000Y-45135000D02*
X131120000Y-45135000D01*
X112880000Y-51555000D02*
X112500000Y-51555000D01*
X112880000Y-70100000D02*
X112880000Y-70880000D01*
X112880000Y-70880000D02*
X113880000Y-70880000D01*
X131120000Y-45135000D02*
X131120000Y-51555000D01*
X131120000Y-70100000D02*
X131120000Y-70880000D01*
X131120000Y-70880000D02*
X130120000Y-70880000D01*
X103390000Y-78350000D02*
X103390000Y-80150000D01*
X106610000Y-80150000D02*
X106610000Y-77700000D01*
X109950000Y-61750000D02*
G75*
G02*
X108550000Y-61750000I-700000J0D01*
G01*
X108550000Y-61750000D02*
G75*
G02*
X109950000Y-61750000I700000J0D01*
G01*
X109950000Y-66750000D02*
G75*
G02*
X108550000Y-66750000I-700000J0D01*
G01*
X108550000Y-66750000D02*
G75*
G02*
X109950000Y-66750000I700000J0D01*
G01*
X118857500Y-88375258D02*
X118857500Y-87900742D01*
X119902500Y-88375258D02*
X119902500Y-87900742D01*
X109140000Y-77602064D02*
X109140000Y-76397936D01*
X111860000Y-77602064D02*
X111860000Y-76397936D01*
X120888000Y-83436000D02*
X120888000Y-86236000D01*
X118888000Y-83436000D02*
X120888000Y-83436000D01*
X120888000Y-86236000D02*
X118888000Y-86236000D01*
X118888000Y-86236000D02*
X118888000Y-83436000D01*
X124699500Y-88375258D02*
X124699500Y-87900742D01*
X125744500Y-88375258D02*
X125744500Y-87900742D01*
M02*
