G04 #@! TF.GenerationSoftware,KiCad,Pcbnew,7.0.10*
G04 #@! TF.CreationDate,2024-03-18T19:26:52+01:00*
G04 #@! TF.ProjectId,CanLite,43616e4c-6974-4652-9e6b-696361645f70,rev?*
G04 #@! TF.SameCoordinates,Original*
G04 #@! TF.FileFunction,Soldermask,Top*
G04 #@! TF.FilePolarity,Negative*
%FSLAX46Y46*%
G04 Gerber Fmt 4.6, Leading zero omitted, Abs format (unit mm)*
G04 Created by KiCad (PCBNEW 7.0.10) date 2024-03-18 19:26:52*
%MOMM*%
%LPD*%
G01*
G04 APERTURE LIST*
G04 Aperture macros list*
%AMRoundRect*
0 Rectangle with rounded corners*
0 $1 Rounding radius*
0 $2 $3 $4 $5 $6 $7 $8 $9 X,Y pos of 4 corners*
0 Add a 4 corners polygon primitive as box body*
4,1,4,$2,$3,$4,$5,$6,$7,$8,$9,$2,$3,0*
0 Add four circle primitives for the rounded corners*
1,1,$1+$1,$2,$3*
1,1,$1+$1,$4,$5*
1,1,$1+$1,$6,$7*
1,1,$1+$1,$8,$9*
0 Add four rect primitives between the rounded corners*
20,1,$1+$1,$2,$3,$4,$5,0*
20,1,$1+$1,$4,$5,$6,$7,0*
20,1,$1+$1,$6,$7,$8,$9,0*
20,1,$1+$1,$8,$9,$2,$3,0*%
%AMFreePoly0*
4,1,6,1.000000,0.000000,0.500000,-0.750000,-0.500000,-0.750000,-0.500000,0.750000,0.500000,0.750000,1.000000,0.000000,1.000000,0.000000,$1*%
%AMFreePoly1*
4,1,6,0.500000,-0.750000,-0.650000,-0.750000,-0.150000,0.000000,-0.650000,0.750000,0.500000,0.750000,0.500000,-0.750000,0.500000,-0.750000,$1*%
G04 Aperture macros list end*
%ADD10C,0.200000*%
%ADD11C,0.150000*%
%ADD12C,0.300000*%
%ADD13RoundRect,0.218750X0.256250X-0.218750X0.256250X0.218750X-0.256250X0.218750X-0.256250X-0.218750X0*%
%ADD14RoundRect,0.218750X-0.256250X0.218750X-0.256250X-0.218750X0.256250X-0.218750X0.256250X0.218750X0*%
%ADD15RoundRect,0.250000X-0.475000X0.250000X-0.475000X-0.250000X0.475000X-0.250000X0.475000X0.250000X0*%
%ADD16RoundRect,0.250000X0.250000X0.475000X-0.250000X0.475000X-0.250000X-0.475000X0.250000X-0.475000X0*%
%ADD17RoundRect,0.112500X0.187500X0.112500X-0.187500X0.112500X-0.187500X-0.112500X0.187500X-0.112500X0*%
%ADD18R,1.700000X1.700000*%
%ADD19O,1.700000X1.700000*%
%ADD20FreePoly0,90.000000*%
%ADD21FreePoly1,90.000000*%
%ADD22RoundRect,0.200000X0.275000X-0.200000X0.275000X0.200000X-0.275000X0.200000X-0.275000X-0.200000X0*%
%ADD23RoundRect,0.150000X-0.150000X0.825000X-0.150000X-0.825000X0.150000X-0.825000X0.150000X0.825000X0*%
%ADD24RoundRect,0.218750X0.218750X0.256250X-0.218750X0.256250X-0.218750X-0.256250X0.218750X-0.256250X0*%
%ADD25C,1.000000*%
%ADD26RoundRect,0.250000X0.475000X-0.250000X0.475000X0.250000X-0.475000X0.250000X-0.475000X-0.250000X0*%
%ADD27R,0.850000X1.100000*%
%ADD28R,0.750000X1.100000*%
%ADD29R,1.200000X1.000000*%
%ADD30R,1.550000X1.350000*%
%ADD31R,1.900000X1.350000*%
%ADD32R,1.170000X1.800000*%
%ADD33R,2.100000X2.100000*%
%ADD34C,2.100000*%
%ADD35RoundRect,0.225000X-0.225000X-0.250000X0.225000X-0.250000X0.225000X0.250000X-0.225000X0.250000X0*%
%ADD36RoundRect,0.200000X-0.200000X-0.275000X0.200000X-0.275000X0.200000X0.275000X-0.200000X0.275000X0*%
%ADD37R,2.000000X0.900000*%
%ADD38R,0.900000X2.000000*%
%ADD39R,5.000000X5.000000*%
%ADD40R,0.650000X1.060000*%
%ADD41RoundRect,0.250000X1.075000X-0.375000X1.075000X0.375000X-1.075000X0.375000X-1.075000X-0.375000X0*%
%ADD42FreePoly0,270.000000*%
%ADD43FreePoly1,270.000000*%
G04 APERTURE END LIST*
D10*
X132502219Y-77280952D02*
X131835552Y-77280952D01*
X132026028Y-77280952D02*
X131930790Y-77233333D01*
X131930790Y-77233333D02*
X131883171Y-77185714D01*
X131883171Y-77185714D02*
X131835552Y-77090476D01*
X131835552Y-77090476D02*
X131835552Y-76995238D01*
X132454600Y-76280952D02*
X132502219Y-76376190D01*
X132502219Y-76376190D02*
X132502219Y-76566666D01*
X132502219Y-76566666D02*
X132454600Y-76661904D01*
X132454600Y-76661904D02*
X132359361Y-76709523D01*
X132359361Y-76709523D02*
X131978409Y-76709523D01*
X131978409Y-76709523D02*
X131883171Y-76661904D01*
X131883171Y-76661904D02*
X131835552Y-76566666D01*
X131835552Y-76566666D02*
X131835552Y-76376190D01*
X131835552Y-76376190D02*
X131883171Y-76280952D01*
X131883171Y-76280952D02*
X131978409Y-76233333D01*
X131978409Y-76233333D02*
X132073647Y-76233333D01*
X132073647Y-76233333D02*
X132168885Y-76709523D01*
X131835552Y-75899999D02*
X132502219Y-75661904D01*
X132502219Y-75661904D02*
X131835552Y-75423809D01*
X132502219Y-75042856D02*
X131502219Y-75042856D01*
X131502219Y-75042856D02*
X131502219Y-74804761D01*
X131502219Y-74804761D02*
X131549838Y-74661904D01*
X131549838Y-74661904D02*
X131645076Y-74566666D01*
X131645076Y-74566666D02*
X131740314Y-74519047D01*
X131740314Y-74519047D02*
X131930790Y-74471428D01*
X131930790Y-74471428D02*
X132073647Y-74471428D01*
X132073647Y-74471428D02*
X132264123Y-74519047D01*
X132264123Y-74519047D02*
X132359361Y-74566666D01*
X132359361Y-74566666D02*
X132454600Y-74661904D01*
X132454600Y-74661904D02*
X132502219Y-74804761D01*
X132502219Y-74804761D02*
X132502219Y-75042856D01*
D11*
X130478961Y-76890476D02*
X131012295Y-76890476D01*
X130174200Y-77080952D02*
X130745628Y-77271429D01*
X130745628Y-77271429D02*
X130745628Y-76776190D01*
X130212295Y-76319047D02*
X130212295Y-76242857D01*
X130212295Y-76242857D02*
X130250390Y-76166666D01*
X130250390Y-76166666D02*
X130288485Y-76128571D01*
X130288485Y-76128571D02*
X130364676Y-76090476D01*
X130364676Y-76090476D02*
X130517057Y-76052381D01*
X130517057Y-76052381D02*
X130707533Y-76052381D01*
X130707533Y-76052381D02*
X130859914Y-76090476D01*
X130859914Y-76090476D02*
X130936104Y-76128571D01*
X130936104Y-76128571D02*
X130974200Y-76166666D01*
X130974200Y-76166666D02*
X131012295Y-76242857D01*
X131012295Y-76242857D02*
X131012295Y-76319047D01*
X131012295Y-76319047D02*
X130974200Y-76395238D01*
X130974200Y-76395238D02*
X130936104Y-76433333D01*
X130936104Y-76433333D02*
X130859914Y-76471428D01*
X130859914Y-76471428D02*
X130707533Y-76509524D01*
X130707533Y-76509524D02*
X130517057Y-76509524D01*
X130517057Y-76509524D02*
X130364676Y-76471428D01*
X130364676Y-76471428D02*
X130288485Y-76433333D01*
X130288485Y-76433333D02*
X130250390Y-76395238D01*
X130250390Y-76395238D02*
X130212295Y-76319047D01*
X130288485Y-75747619D02*
X130250390Y-75709523D01*
X130250390Y-75709523D02*
X130212295Y-75633333D01*
X130212295Y-75633333D02*
X130212295Y-75442857D01*
X130212295Y-75442857D02*
X130250390Y-75366666D01*
X130250390Y-75366666D02*
X130288485Y-75328571D01*
X130288485Y-75328571D02*
X130364676Y-75290476D01*
X130364676Y-75290476D02*
X130440866Y-75290476D01*
X130440866Y-75290476D02*
X130555152Y-75328571D01*
X130555152Y-75328571D02*
X131012295Y-75785714D01*
X131012295Y-75785714D02*
X131012295Y-75290476D01*
X131012295Y-74528571D02*
X131012295Y-74985714D01*
X131012295Y-74757142D02*
X130212295Y-74757142D01*
X130212295Y-74757142D02*
X130326580Y-74833333D01*
X130326580Y-74833333D02*
X130402771Y-74909523D01*
X130402771Y-74909523D02*
X130440866Y-74985714D01*
D12*
X136635114Y-78562999D02*
X136635114Y-78062999D01*
X137420828Y-77946928D02*
X137420828Y-78661213D01*
X137420828Y-78661213D02*
X135920828Y-78473713D01*
X135920828Y-78473713D02*
X135920828Y-77759428D01*
X137349400Y-77366570D02*
X137420828Y-77161213D01*
X137420828Y-77161213D02*
X137420828Y-76804070D01*
X137420828Y-76804070D02*
X137349400Y-76652285D01*
X137349400Y-76652285D02*
X137277971Y-76571927D01*
X137277971Y-76571927D02*
X137135114Y-76482642D01*
X137135114Y-76482642D02*
X136992257Y-76464785D01*
X136992257Y-76464785D02*
X136849400Y-76518356D01*
X136849400Y-76518356D02*
X136777971Y-76580856D01*
X136777971Y-76580856D02*
X136706542Y-76714785D01*
X136706542Y-76714785D02*
X136635114Y-76991570D01*
X136635114Y-76991570D02*
X136563685Y-77125499D01*
X136563685Y-77125499D02*
X136492257Y-77187999D01*
X136492257Y-77187999D02*
X136349400Y-77241570D01*
X136349400Y-77241570D02*
X136206542Y-77223713D01*
X136206542Y-77223713D02*
X136063685Y-77134427D01*
X136063685Y-77134427D02*
X135992257Y-77054070D01*
X135992257Y-77054070D02*
X135920828Y-76902285D01*
X135920828Y-76902285D02*
X135920828Y-76545142D01*
X135920828Y-76545142D02*
X135992257Y-76339785D01*
X137420828Y-75875499D02*
X135920828Y-75687999D01*
X135920828Y-75687999D02*
X135920828Y-75116571D01*
X135920828Y-75116571D02*
X135992257Y-74982642D01*
X135992257Y-74982642D02*
X136063685Y-74920142D01*
X136063685Y-74920142D02*
X136206542Y-74866571D01*
X136206542Y-74866571D02*
X136420828Y-74893356D01*
X136420828Y-74893356D02*
X136563685Y-74982642D01*
X136563685Y-74982642D02*
X136635114Y-75062999D01*
X136635114Y-75062999D02*
X136706542Y-75214785D01*
X136706542Y-75214785D02*
X136706542Y-75786214D01*
X135920828Y-74330856D02*
X135920828Y-73402285D01*
X135920828Y-73402285D02*
X136492257Y-73973714D01*
X136492257Y-73973714D02*
X136492257Y-73759428D01*
X136492257Y-73759428D02*
X136563685Y-73625499D01*
X136563685Y-73625499D02*
X136635114Y-73562999D01*
X136635114Y-73562999D02*
X136777971Y-73509428D01*
X136777971Y-73509428D02*
X137135114Y-73554071D01*
X137135114Y-73554071D02*
X137277971Y-73643356D01*
X137277971Y-73643356D02*
X137349400Y-73723714D01*
X137349400Y-73723714D02*
X137420828Y-73875499D01*
X137420828Y-73875499D02*
X137420828Y-74304071D01*
X137420828Y-74304071D02*
X137349400Y-74437999D01*
X137349400Y-74437999D02*
X137277971Y-74500499D01*
X136063685Y-72848714D02*
X135992257Y-72768357D01*
X135992257Y-72768357D02*
X135920828Y-72616571D01*
X135920828Y-72616571D02*
X135920828Y-72259428D01*
X135920828Y-72259428D02*
X135992257Y-72125500D01*
X135992257Y-72125500D02*
X136063685Y-72063000D01*
X136063685Y-72063000D02*
X136206542Y-72009428D01*
X136206542Y-72009428D02*
X136349400Y-72027285D01*
X136349400Y-72027285D02*
X136563685Y-72125500D01*
X136563685Y-72125500D02*
X137420828Y-73089785D01*
X137420828Y-73089785D02*
X137420828Y-72161214D01*
X139692971Y-78357642D02*
X139764400Y-78437999D01*
X139764400Y-78437999D02*
X139835828Y-78661214D01*
X139835828Y-78661214D02*
X139835828Y-78804071D01*
X139835828Y-78804071D02*
X139764400Y-79009428D01*
X139764400Y-79009428D02*
X139621542Y-79134428D01*
X139621542Y-79134428D02*
X139478685Y-79187999D01*
X139478685Y-79187999D02*
X139192971Y-79223714D01*
X139192971Y-79223714D02*
X138978685Y-79196928D01*
X138978685Y-79196928D02*
X138692971Y-79089785D01*
X138692971Y-79089785D02*
X138550114Y-79000499D01*
X138550114Y-79000499D02*
X138407257Y-78839785D01*
X138407257Y-78839785D02*
X138335828Y-78616571D01*
X138335828Y-78616571D02*
X138335828Y-78473714D01*
X138335828Y-78473714D02*
X138407257Y-78268357D01*
X138407257Y-78268357D02*
X138478685Y-78205857D01*
X139835828Y-77089785D02*
X139050114Y-76991571D01*
X139050114Y-76991571D02*
X138907257Y-77045142D01*
X138907257Y-77045142D02*
X138835828Y-77179071D01*
X138835828Y-77179071D02*
X138835828Y-77464785D01*
X138835828Y-77464785D02*
X138907257Y-77616571D01*
X139764400Y-77080857D02*
X139835828Y-77232642D01*
X139835828Y-77232642D02*
X139835828Y-77589785D01*
X139835828Y-77589785D02*
X139764400Y-77723714D01*
X139764400Y-77723714D02*
X139621542Y-77777285D01*
X139621542Y-77777285D02*
X139478685Y-77759428D01*
X139478685Y-77759428D02*
X139335828Y-77670142D01*
X139335828Y-77670142D02*
X139264400Y-77518357D01*
X139264400Y-77518357D02*
X139264400Y-77161214D01*
X139264400Y-77161214D02*
X139192971Y-77009428D01*
X138835828Y-76250499D02*
X139835828Y-76375499D01*
X138978685Y-76268356D02*
X138907257Y-76187999D01*
X138907257Y-76187999D02*
X138835828Y-76036214D01*
X138835828Y-76036214D02*
X138835828Y-75821928D01*
X138835828Y-75821928D02*
X138907257Y-75687999D01*
X138907257Y-75687999D02*
X139050114Y-75634428D01*
X139050114Y-75634428D02*
X139835828Y-75732642D01*
X139835828Y-74304071D02*
X139835828Y-75018356D01*
X139835828Y-75018356D02*
X138335828Y-74830856D01*
X139835828Y-73804070D02*
X138835828Y-73679070D01*
X138335828Y-73616570D02*
X138407257Y-73696927D01*
X138407257Y-73696927D02*
X138478685Y-73634427D01*
X138478685Y-73634427D02*
X138407257Y-73554070D01*
X138407257Y-73554070D02*
X138335828Y-73616570D01*
X138335828Y-73616570D02*
X138478685Y-73634427D01*
X138835828Y-73179070D02*
X138835828Y-72607641D01*
X138335828Y-72902284D02*
X139621542Y-73062999D01*
X139621542Y-73062999D02*
X139764400Y-73009427D01*
X139764400Y-73009427D02*
X139835828Y-72875499D01*
X139835828Y-72875499D02*
X139835828Y-72732641D01*
X139764400Y-71652284D02*
X139835828Y-71804070D01*
X139835828Y-71804070D02*
X139835828Y-72089784D01*
X139835828Y-72089784D02*
X139764400Y-72223713D01*
X139764400Y-72223713D02*
X139621542Y-72277284D01*
X139621542Y-72277284D02*
X139050114Y-72205856D01*
X139050114Y-72205856D02*
X138907257Y-72116570D01*
X138907257Y-72116570D02*
X138835828Y-71964784D01*
X138835828Y-71964784D02*
X138835828Y-71679070D01*
X138835828Y-71679070D02*
X138907257Y-71545141D01*
X138907257Y-71545141D02*
X139050114Y-71491570D01*
X139050114Y-71491570D02*
X139192971Y-71509427D01*
X139192971Y-71509427D02*
X139335828Y-72241570D01*
D13*
X111000000Y-54787500D03*
X111000000Y-53212500D03*
D14*
X111000000Y-58212500D03*
X111000000Y-59787500D03*
D13*
X133000000Y-82987500D03*
X133000000Y-81412500D03*
D15*
X104600000Y-85050000D03*
X104600000Y-86950000D03*
D16*
X109950000Y-71500000D03*
X108050000Y-71500000D03*
D13*
X123000000Y-75537500D03*
X123000000Y-73962500D03*
D17*
X110524000Y-90500000D03*
X108424000Y-90500000D03*
D18*
X136906000Y-68834000D03*
D19*
X136906000Y-66294000D03*
X136906000Y-63754000D03*
X136906000Y-61214000D03*
X136906000Y-58674000D03*
X136906000Y-56134000D03*
D20*
X138400000Y-86625000D03*
D21*
X138400000Y-85175000D03*
D13*
X109250000Y-59787500D03*
X109250000Y-58212500D03*
D14*
X124750000Y-73962500D03*
X124750000Y-75537500D03*
D13*
X116332000Y-88925500D03*
X116332000Y-87350500D03*
X135500000Y-82987500D03*
X135500000Y-81412500D03*
D22*
X138400000Y-90825000D03*
X138400000Y-89175000D03*
D23*
X135505000Y-86125000D03*
X134235000Y-86125000D03*
X132965000Y-86125000D03*
X131695000Y-86125000D03*
X131695000Y-91075000D03*
X132965000Y-91075000D03*
X134235000Y-91075000D03*
X135505000Y-91075000D03*
D24*
X120167500Y-90424000D03*
X118592500Y-90424000D03*
D13*
X121412000Y-88925500D03*
X121412000Y-87350500D03*
X123190000Y-88925500D03*
X123190000Y-87350500D03*
D25*
X104700000Y-82400000D03*
X106400000Y-56200000D03*
D26*
X109000000Y-55700000D03*
X109000000Y-53800000D03*
D24*
X106037500Y-73500000D03*
X104462500Y-73500000D03*
D27*
X124995000Y-102986000D03*
X123895000Y-102986000D03*
X122795000Y-102986000D03*
X121695000Y-102986000D03*
X120595000Y-102986000D03*
X119495000Y-102986000D03*
X118395000Y-102986000D03*
D28*
X117345000Y-102986000D03*
D29*
X127630000Y-96836000D03*
X127630000Y-93136000D03*
D30*
X127455000Y-102861000D03*
D31*
X124130000Y-92161000D03*
X118160000Y-92161000D03*
D32*
X116135000Y-102636000D03*
D33*
X131950000Y-99568000D03*
D34*
X137030000Y-99568000D03*
D33*
X106680000Y-99568000D03*
D34*
X111760000Y-99568000D03*
D35*
X104475000Y-76500000D03*
X106025000Y-76500000D03*
D36*
X104425000Y-75000000D03*
X106075000Y-75000000D03*
D37*
X113500000Y-52745000D03*
X113500000Y-54015000D03*
X113500000Y-55285000D03*
X113500000Y-56555000D03*
X113500000Y-57825000D03*
X113500000Y-59095000D03*
X113500000Y-60365000D03*
X113500000Y-61635000D03*
X113500000Y-62905000D03*
X113500000Y-64175000D03*
X113500000Y-65445000D03*
X113500000Y-66715000D03*
X113500000Y-67985000D03*
X113500000Y-69255000D03*
D38*
X116285000Y-70255000D03*
X117555000Y-70255000D03*
X118825000Y-70255000D03*
X120095000Y-70255000D03*
X121365000Y-70255000D03*
X122635000Y-70255000D03*
X123905000Y-70255000D03*
X125175000Y-70255000D03*
X126445000Y-70255000D03*
X127715000Y-70255000D03*
D37*
X130500000Y-69255000D03*
X130500000Y-67985000D03*
X130500000Y-66715000D03*
X130500000Y-65445000D03*
X130500000Y-64175000D03*
X130500000Y-62905000D03*
X130500000Y-61635000D03*
X130500000Y-60365000D03*
X130500000Y-59095000D03*
X130500000Y-57825000D03*
X130500000Y-56555000D03*
X130500000Y-55285000D03*
X130500000Y-54015000D03*
X130500000Y-52745000D03*
D39*
X121000000Y-60245000D03*
D40*
X105950000Y-78150000D03*
X105000000Y-78150000D03*
X104050000Y-78150000D03*
X104050000Y-80350000D03*
X105000000Y-80350000D03*
X105950000Y-80350000D03*
D25*
X109250000Y-61750000D03*
X109250000Y-66750000D03*
D22*
X119380000Y-88963000D03*
X119380000Y-87313000D03*
D41*
X110500000Y-78400000D03*
X110500000Y-75600000D03*
D42*
X119888000Y-84111000D03*
D43*
X119888000Y-85561000D03*
D22*
X125222000Y-88963000D03*
X125222000Y-87313000D03*
M02*
