G04 #@! TF.GenerationSoftware,KiCad,Pcbnew,7.0.10*
G04 #@! TF.CreationDate,2024-03-18T19:26:52+01:00*
G04 #@! TF.ProjectId,CanLite,43616e4c-6974-4652-9e6b-696361645f70,rev?*
G04 #@! TF.SameCoordinates,Original*
G04 #@! TF.FileFunction,Copper,L2,Bot*
G04 #@! TF.FilePolarity,Positive*
%FSLAX46Y46*%
G04 Gerber Fmt 4.6, Leading zero omitted, Abs format (unit mm)*
G04 Created by KiCad (PCBNEW 7.0.10) date 2024-03-18 19:26:52*
%MOMM*%
%LPD*%
G01*
G04 APERTURE LIST*
G04 #@! TA.AperFunction,ComponentPad*
%ADD10R,1.700000X1.700000*%
G04 #@! TD*
G04 #@! TA.AperFunction,ComponentPad*
%ADD11O,1.700000X1.700000*%
G04 #@! TD*
G04 #@! TA.AperFunction,ComponentPad*
%ADD12R,2.100000X2.100000*%
G04 #@! TD*
G04 #@! TA.AperFunction,ComponentPad*
%ADD13C,2.100000*%
G04 #@! TD*
G04 #@! TA.AperFunction,ViaPad*
%ADD14C,0.800000*%
G04 #@! TD*
G04 #@! TA.AperFunction,ViaPad*
%ADD15C,0.600000*%
G04 #@! TD*
G04 #@! TA.AperFunction,Conductor*
%ADD16C,0.250000*%
G04 #@! TD*
G04 APERTURE END LIST*
D10*
X136906000Y-68834000D03*
D11*
X136906000Y-66294000D03*
X136906000Y-63754000D03*
X136906000Y-61214000D03*
X136906000Y-58674000D03*
X136906000Y-56134000D03*
D12*
X131950000Y-99568000D03*
D13*
X137030000Y-99568000D03*
D12*
X106680000Y-99568000D03*
D13*
X111760000Y-99568000D03*
D14*
X108204000Y-85100000D03*
D15*
X141000000Y-69750000D03*
X141000000Y-91750000D03*
X141000000Y-79750000D03*
X141000000Y-85750000D03*
X141000000Y-63750000D03*
X141000000Y-61750000D03*
X141000000Y-83750000D03*
X141000000Y-89750000D03*
X141000000Y-77750000D03*
X141000000Y-101750000D03*
X141000000Y-97750000D03*
X141000000Y-67750000D03*
X141000000Y-95750000D03*
X141000000Y-99750000D03*
X141000000Y-73750000D03*
X141000000Y-65750000D03*
X141000000Y-87750000D03*
X141000000Y-93750000D03*
X141000000Y-81750000D03*
X141000000Y-71750000D03*
X111000000Y-103750000D03*
X137000000Y-103750000D03*
X131000000Y-103750000D03*
X135000000Y-103750000D03*
X105000000Y-103750000D03*
X133000000Y-103750000D03*
X140800000Y-103500000D03*
X113000000Y-103750000D03*
X139000000Y-103750000D03*
X129000000Y-103750000D03*
X107000000Y-103750000D03*
X115000000Y-103750000D03*
X109000000Y-103750000D03*
X135750000Y-52250000D03*
X139750000Y-52250000D03*
X133750000Y-52250000D03*
X103000000Y-59750000D03*
X103000000Y-57750000D03*
X103000000Y-55750000D03*
X103000000Y-53750000D03*
X141000000Y-59750000D03*
X141000000Y-55750000D03*
X141000000Y-53750000D03*
X141000000Y-57750000D03*
X111750000Y-60800000D03*
X113750000Y-70750000D03*
X111250000Y-67750000D03*
X108000000Y-60750000D03*
X129600000Y-97300000D03*
X141000000Y-75700000D03*
X129500000Y-76600000D03*
X119500000Y-72500000D03*
X103000000Y-87750000D03*
X110500000Y-77000000D03*
X124200000Y-60300000D03*
X109900000Y-82900000D03*
X111000000Y-60800000D03*
X114250000Y-102000000D03*
X103000000Y-93750000D03*
X109900000Y-83500000D03*
X103000000Y-75750000D03*
X105200000Y-79200000D03*
X114250000Y-99750000D03*
X115100000Y-52700000D03*
X108200000Y-52200000D03*
X104000000Y-79200000D03*
X107100000Y-75000000D03*
X103000000Y-83750000D03*
X103000000Y-99750000D03*
X103000000Y-89750000D03*
X121000000Y-57000000D03*
X106300000Y-52200000D03*
X132200000Y-52700000D03*
X103000000Y-101750000D03*
X109400000Y-52200000D03*
X109900000Y-82300000D03*
X104400000Y-88700000D03*
X103300000Y-103400000D03*
X103000000Y-61750000D03*
X106300000Y-87800000D03*
X103000000Y-69750000D03*
X110900000Y-92800000D03*
X129600000Y-99500000D03*
X103000000Y-85750000D03*
X129600000Y-102000000D03*
X105000000Y-88700000D03*
X103000000Y-91750000D03*
X103000000Y-73750000D03*
X103800000Y-88700000D03*
D14*
X124206000Y-90424000D03*
D15*
X103000000Y-97750000D03*
X114250000Y-97500000D03*
X111600000Y-52200000D03*
X117800000Y-60200000D03*
X104500000Y-52250000D03*
X114250000Y-95250000D03*
X137668000Y-52324000D03*
X109900000Y-84100000D03*
X104600000Y-79200000D03*
X103000000Y-63750000D03*
X121000000Y-63500000D03*
X135500000Y-80300000D03*
X103000000Y-67750000D03*
X103000000Y-95750000D03*
X103000000Y-71750000D03*
X116300000Y-68600000D03*
D14*
X117348000Y-94234000D03*
D15*
X110600000Y-52200000D03*
X103000000Y-77750000D03*
X134200000Y-88600000D03*
X128900000Y-52700000D03*
X103000000Y-65750000D03*
X103000000Y-79750000D03*
X133000000Y-80300000D03*
X109800000Y-86800000D03*
D14*
X122000000Y-75500000D03*
D15*
X103000000Y-81750000D03*
D14*
X130302000Y-85344000D03*
X126746000Y-65532000D03*
X135636000Y-87884000D03*
X126746000Y-64262000D03*
X125405000Y-90170000D03*
X114300000Y-72136000D03*
X122855000Y-90170000D03*
X117094000Y-73152000D03*
X121412000Y-90170000D03*
X126492000Y-71882000D03*
X120396000Y-101600000D03*
X111506000Y-68834000D03*
X118110000Y-88392000D03*
X118618000Y-68326000D03*
X117348000Y-67564000D03*
X115316000Y-88900000D03*
D16*
X136906000Y-61214000D02*
X116902116Y-61214000D01*
X116902116Y-61214000D02*
X108204000Y-69912116D01*
X108204000Y-69912116D02*
X108204000Y-85100000D01*
X130302000Y-85344000D02*
X130302000Y-69088000D01*
X130302000Y-69088000D02*
X126746000Y-65532000D01*
X129549305Y-64262000D02*
X126746000Y-64262000D01*
X133085884Y-79502000D02*
X133085884Y-67798579D01*
X133085884Y-67798579D02*
X129549305Y-64262000D01*
X135636000Y-82052116D02*
X133085884Y-79502000D01*
X135636000Y-87884000D02*
X135636000Y-82052116D01*
X125405000Y-90250305D02*
X124310305Y-91345000D01*
X116735695Y-91345000D02*
X114300000Y-88909305D01*
X124310305Y-91345000D02*
X116735695Y-91345000D01*
X125405000Y-90170000D02*
X125405000Y-90250305D01*
X114300000Y-88909305D02*
X114300000Y-72136000D01*
X117094000Y-88401305D02*
X117094000Y-73152000D01*
X119587695Y-90895000D02*
X117094000Y-88401305D01*
X122855000Y-90170000D02*
X122130000Y-90895000D01*
X122130000Y-90895000D02*
X119587695Y-90895000D01*
X121412000Y-90170000D02*
X121412000Y-78486000D01*
X121412000Y-78486000D02*
X126492000Y-73406000D01*
X126492000Y-73406000D02*
X126492000Y-71882000D01*
X120396000Y-101600000D02*
X116623000Y-97827000D01*
X111506000Y-90170000D02*
X111506000Y-68834000D01*
X116623000Y-97827000D02*
X116623000Y-95287000D01*
X116623000Y-95287000D02*
X111506000Y-90170000D01*
X118872000Y-74930000D02*
X118872000Y-87630000D01*
X118618000Y-68326000D02*
X118618000Y-74676000D01*
X118872000Y-87630000D02*
X118110000Y-88392000D01*
X118618000Y-74676000D02*
X118872000Y-74930000D01*
X116452116Y-67564000D02*
X117348000Y-67564000D01*
X115316000Y-68700116D02*
X116452116Y-67564000D01*
X115316000Y-88900000D02*
X115316000Y-68700116D01*
G04 #@! TA.AperFunction,Conductor*
G36*
X116818763Y-67959502D02*
G01*
X116854339Y-67993926D01*
X116857517Y-67998530D01*
X116975760Y-68103283D01*
X117115635Y-68176696D01*
X117115636Y-68176696D01*
X117115638Y-68176697D01*
X117143240Y-68183500D01*
X117269015Y-68214500D01*
X117269017Y-68214500D01*
X117426983Y-68214500D01*
X117426985Y-68214500D01*
X117580365Y-68176696D01*
X117720240Y-68103283D01*
X117773571Y-68056035D01*
X117837822Y-68025836D01*
X117908203Y-68035167D01*
X117962366Y-68081067D01*
X117983115Y-68148964D01*
X117982204Y-68165536D01*
X117962722Y-68325995D01*
X117962722Y-68326003D01*
X117981761Y-68482815D01*
X117999457Y-68529473D01*
X118037780Y-68630523D01*
X118037781Y-68630525D01*
X118037782Y-68630526D01*
X118037783Y-68630529D01*
X118127516Y-68760529D01*
X118127522Y-68760535D01*
X118200052Y-68824790D01*
X118237778Y-68884934D01*
X118242500Y-68919103D01*
X118242500Y-74623989D01*
X118239818Y-74649846D01*
X118237632Y-74660267D01*
X118241532Y-74691546D01*
X118242495Y-74707057D01*
X118242499Y-74707113D01*
X118245915Y-74727584D01*
X118246665Y-74732732D01*
X118253133Y-74784621D01*
X118255383Y-74792180D01*
X118257934Y-74799611D01*
X118282813Y-74845583D01*
X118285195Y-74850210D01*
X118308173Y-74897210D01*
X118312755Y-74903627D01*
X118317576Y-74909822D01*
X118356069Y-74945257D01*
X118359826Y-74948863D01*
X118459595Y-75048632D01*
X118493621Y-75110944D01*
X118496500Y-75137727D01*
X118496500Y-87422270D01*
X118476498Y-87490391D01*
X118459595Y-87511365D01*
X118266365Y-87704595D01*
X118204053Y-87738621D01*
X118177270Y-87741500D01*
X118031012Y-87741500D01*
X117877638Y-87779302D01*
X117877634Y-87779304D01*
X117737759Y-87852717D01*
X117679053Y-87904726D01*
X117614799Y-87934926D01*
X117544419Y-87925594D01*
X117490256Y-87879693D01*
X117469508Y-87811796D01*
X117469500Y-87810413D01*
X117469500Y-73745103D01*
X117489502Y-73676982D01*
X117511948Y-73650790D01*
X117584477Y-73586535D01*
X117584483Y-73586530D01*
X117665840Y-73468664D01*
X117674216Y-73456529D01*
X117674216Y-73456528D01*
X117674220Y-73456523D01*
X117730237Y-73308818D01*
X117730237Y-73308817D01*
X117730238Y-73308815D01*
X117749278Y-73152003D01*
X117749278Y-73151996D01*
X117730238Y-72995184D01*
X117722392Y-72974498D01*
X117674220Y-72847477D01*
X117674216Y-72847472D01*
X117674216Y-72847470D01*
X117584483Y-72717470D01*
X117584481Y-72717468D01*
X117466240Y-72612717D01*
X117326365Y-72539304D01*
X117326361Y-72539302D01*
X117172987Y-72501500D01*
X117172985Y-72501500D01*
X117015015Y-72501500D01*
X117015012Y-72501500D01*
X116861638Y-72539302D01*
X116861634Y-72539304D01*
X116721759Y-72612717D01*
X116603518Y-72717468D01*
X116603516Y-72717470D01*
X116513783Y-72847470D01*
X116513782Y-72847473D01*
X116457761Y-72995184D01*
X116438722Y-73151996D01*
X116438722Y-73152003D01*
X116457761Y-73308815D01*
X116485771Y-73382670D01*
X116513780Y-73456523D01*
X116513781Y-73456525D01*
X116513782Y-73456526D01*
X116513783Y-73456529D01*
X116603516Y-73586529D01*
X116603522Y-73586535D01*
X116676052Y-73650790D01*
X116713778Y-73710934D01*
X116718500Y-73745103D01*
X116718500Y-88349294D01*
X116715818Y-88375151D01*
X116713632Y-88385572D01*
X116717532Y-88416851D01*
X116718495Y-88432362D01*
X116718499Y-88432418D01*
X116721915Y-88452889D01*
X116722665Y-88458037D01*
X116729133Y-88509926D01*
X116731383Y-88517485D01*
X116733934Y-88524916D01*
X116758813Y-88570888D01*
X116761195Y-88575515D01*
X116784173Y-88622515D01*
X116788755Y-88628932D01*
X116793576Y-88635127D01*
X116832069Y-88670562D01*
X116835826Y-88674168D01*
X118916063Y-90754405D01*
X118950089Y-90816717D01*
X118945024Y-90887532D01*
X118902477Y-90944368D01*
X118835957Y-90969179D01*
X118826968Y-90969500D01*
X116943422Y-90969500D01*
X116875301Y-90949498D01*
X116854327Y-90932595D01*
X115594727Y-89672995D01*
X115560701Y-89610683D01*
X115565766Y-89539868D01*
X115608313Y-89483032D01*
X115625252Y-89472341D01*
X115688240Y-89439283D01*
X115806483Y-89334530D01*
X115896220Y-89204523D01*
X115952237Y-89056818D01*
X115952237Y-89056817D01*
X115952238Y-89056815D01*
X115971278Y-88900003D01*
X115971278Y-88899996D01*
X115952238Y-88743184D01*
X115934544Y-88696529D01*
X115896220Y-88595477D01*
X115896216Y-88595472D01*
X115896216Y-88595470D01*
X115806483Y-88465470D01*
X115806481Y-88465468D01*
X115733947Y-88401209D01*
X115696221Y-88341065D01*
X115691500Y-88306896D01*
X115691500Y-68907843D01*
X115711502Y-68839722D01*
X115728405Y-68818748D01*
X116570748Y-67976405D01*
X116633060Y-67942379D01*
X116659843Y-67939500D01*
X116750642Y-67939500D01*
X116818763Y-67959502D01*
G37*
G04 #@! TD.AperFunction*
G04 #@! TA.AperFunction,Conductor*
G36*
X137160000Y-65860325D02*
G01*
X137048315Y-65809320D01*
X136941763Y-65794000D01*
X136870237Y-65794000D01*
X136763685Y-65809320D01*
X136652000Y-65860325D01*
X136652000Y-64187674D01*
X136763685Y-64238680D01*
X136870237Y-64254000D01*
X136941763Y-64254000D01*
X137048315Y-64238680D01*
X137160000Y-64187674D01*
X137160000Y-65860325D01*
G37*
G04 #@! TD.AperFunction*
G04 #@! TA.AperFunction,Conductor*
G36*
X139403525Y-51425697D02*
G01*
X139681190Y-51441291D01*
X139695226Y-51442872D01*
X139965912Y-51488864D01*
X139979670Y-51492004D01*
X140243507Y-51568014D01*
X140256841Y-51572680D01*
X140510496Y-51677748D01*
X140523226Y-51683879D01*
X140763519Y-51816684D01*
X140775484Y-51824201D01*
X140999404Y-51983081D01*
X141010451Y-51991891D01*
X141215169Y-52174839D01*
X141225160Y-52184830D01*
X141408108Y-52389548D01*
X141416918Y-52400595D01*
X141575798Y-52624515D01*
X141583315Y-52636480D01*
X141716120Y-52876773D01*
X141722251Y-52889503D01*
X141827319Y-53143158D01*
X141831986Y-53156495D01*
X141907993Y-53420321D01*
X141911137Y-53434096D01*
X141957126Y-53704771D01*
X141958708Y-53718812D01*
X141974302Y-53996474D01*
X141974500Y-54003539D01*
X141974500Y-102396460D01*
X141974302Y-102403525D01*
X141958708Y-102681187D01*
X141957126Y-102695228D01*
X141911137Y-102965903D01*
X141907993Y-102979678D01*
X141831986Y-103243504D01*
X141827319Y-103256841D01*
X141722251Y-103510496D01*
X141716120Y-103523226D01*
X141583315Y-103763519D01*
X141575798Y-103775484D01*
X141416918Y-103999404D01*
X141408108Y-104010451D01*
X141225160Y-104215169D01*
X141215169Y-104225160D01*
X141010451Y-104408108D01*
X140999404Y-104416918D01*
X140775484Y-104575798D01*
X140763519Y-104583315D01*
X140523226Y-104716120D01*
X140510496Y-104722251D01*
X140256841Y-104827319D01*
X140243504Y-104831986D01*
X139979678Y-104907993D01*
X139965903Y-104911137D01*
X139695228Y-104957126D01*
X139681187Y-104958708D01*
X139403526Y-104974302D01*
X139396461Y-104974500D01*
X104603539Y-104974500D01*
X104596474Y-104974302D01*
X104318812Y-104958708D01*
X104304771Y-104957126D01*
X104034096Y-104911137D01*
X104020321Y-104907993D01*
X103756495Y-104831986D01*
X103743158Y-104827319D01*
X103489503Y-104722251D01*
X103476773Y-104716120D01*
X103236480Y-104583315D01*
X103224515Y-104575798D01*
X103000595Y-104416918D01*
X102989548Y-104408108D01*
X102784830Y-104225160D01*
X102774839Y-104215169D01*
X102591891Y-104010451D01*
X102583081Y-103999404D01*
X102424201Y-103775484D01*
X102416684Y-103763519D01*
X102283879Y-103523226D01*
X102277748Y-103510496D01*
X102172680Y-103256841D01*
X102168013Y-103243504D01*
X102092004Y-102979670D01*
X102088864Y-102965912D01*
X102042872Y-102695226D01*
X102041291Y-102681187D01*
X102025698Y-102403525D01*
X102025500Y-102396460D01*
X102025500Y-99968000D01*
X105122000Y-99968000D01*
X105122000Y-100666597D01*
X105128505Y-100727093D01*
X105179555Y-100863964D01*
X105179555Y-100863965D01*
X105267095Y-100980904D01*
X105384034Y-101068444D01*
X105520906Y-101119494D01*
X105581402Y-101125999D01*
X105581415Y-101126000D01*
X106280000Y-101126000D01*
X106280000Y-99968000D01*
X105122000Y-99968000D01*
X102025500Y-99968000D01*
X102025500Y-99605886D01*
X106126123Y-99605886D01*
X106156884Y-99753915D01*
X106226442Y-99888156D01*
X106329638Y-99998652D01*
X106458819Y-100077209D01*
X106604404Y-100118000D01*
X106717622Y-100118000D01*
X106829783Y-100102584D01*
X106968458Y-100042349D01*
X107059845Y-99968000D01*
X107080000Y-99968000D01*
X107080000Y-101126000D01*
X107778585Y-101126000D01*
X107778597Y-101125999D01*
X107839093Y-101119494D01*
X107975964Y-101068444D01*
X107975965Y-101068444D01*
X108092904Y-100980904D01*
X108180444Y-100863965D01*
X108180444Y-100863964D01*
X108231494Y-100727093D01*
X108237999Y-100666597D01*
X108238000Y-100666585D01*
X108238000Y-99968000D01*
X107080000Y-99968000D01*
X107059845Y-99968000D01*
X107085739Y-99946934D01*
X107172928Y-99823415D01*
X107223559Y-99680953D01*
X107231285Y-99568000D01*
X110454532Y-99568000D01*
X110474365Y-99794695D01*
X110533260Y-100014493D01*
X110533262Y-100014498D01*
X110629433Y-100220737D01*
X110759948Y-100407134D01*
X110759957Y-100407144D01*
X110920855Y-100568042D01*
X110920865Y-100568051D01*
X111107262Y-100698566D01*
X111107261Y-100698566D01*
X111144089Y-100715739D01*
X111313504Y-100794739D01*
X111533308Y-100853635D01*
X111760000Y-100873468D01*
X111986692Y-100853635D01*
X112206496Y-100794739D01*
X112412734Y-100698568D01*
X112458411Y-100666585D01*
X112599134Y-100568051D01*
X112599136Y-100568048D01*
X112599139Y-100568047D01*
X112760047Y-100407139D01*
X112890568Y-100220734D01*
X112986739Y-100014496D01*
X113045635Y-99794692D01*
X113065468Y-99568000D01*
X113045635Y-99341308D01*
X112986739Y-99121504D01*
X112890568Y-98915266D01*
X112890567Y-98915265D01*
X112890566Y-98915262D01*
X112760051Y-98728865D01*
X112760042Y-98728855D01*
X112599144Y-98567957D01*
X112599134Y-98567948D01*
X112412737Y-98437433D01*
X112412738Y-98437433D01*
X112206498Y-98341262D01*
X112206493Y-98341260D01*
X111986695Y-98282365D01*
X111760000Y-98262532D01*
X111533304Y-98282365D01*
X111313506Y-98341260D01*
X111313501Y-98341262D01*
X111107262Y-98437433D01*
X110920865Y-98567948D01*
X110920855Y-98567957D01*
X110759957Y-98728855D01*
X110759948Y-98728865D01*
X110629433Y-98915262D01*
X110533262Y-99121501D01*
X110533260Y-99121506D01*
X110474365Y-99341304D01*
X110454532Y-99568000D01*
X107231285Y-99568000D01*
X107233877Y-99530114D01*
X107203116Y-99382085D01*
X107133558Y-99247844D01*
X107030362Y-99137348D01*
X106901181Y-99058791D01*
X106755596Y-99018000D01*
X106642378Y-99018000D01*
X106530217Y-99033416D01*
X106391542Y-99093651D01*
X106274261Y-99189066D01*
X106187072Y-99312585D01*
X106136441Y-99455047D01*
X106126123Y-99605886D01*
X102025500Y-99605886D01*
X102025500Y-99168000D01*
X105122000Y-99168000D01*
X106280000Y-99168000D01*
X106280000Y-98010000D01*
X107080000Y-98010000D01*
X107080000Y-99168000D01*
X108238000Y-99168000D01*
X108238000Y-98469414D01*
X108237999Y-98469402D01*
X108231494Y-98408906D01*
X108180444Y-98272035D01*
X108180444Y-98272034D01*
X108092904Y-98155095D01*
X107975965Y-98067555D01*
X107839093Y-98016505D01*
X107778597Y-98010000D01*
X107080000Y-98010000D01*
X106280000Y-98010000D01*
X105581402Y-98010000D01*
X105520906Y-98016505D01*
X105384035Y-98067555D01*
X105384034Y-98067555D01*
X105267095Y-98155095D01*
X105179555Y-98272034D01*
X105179555Y-98272035D01*
X105128505Y-98408906D01*
X105122000Y-98469402D01*
X105122000Y-99168000D01*
X102025500Y-99168000D01*
X102025500Y-85100003D01*
X107548722Y-85100003D01*
X107567761Y-85256815D01*
X107595771Y-85330670D01*
X107623780Y-85404523D01*
X107623781Y-85404525D01*
X107623782Y-85404526D01*
X107623783Y-85404529D01*
X107690245Y-85500815D01*
X107713517Y-85534530D01*
X107831760Y-85639283D01*
X107971635Y-85712696D01*
X107971636Y-85712696D01*
X107971638Y-85712697D01*
X108048325Y-85731598D01*
X108125015Y-85750500D01*
X108125017Y-85750500D01*
X108282983Y-85750500D01*
X108282985Y-85750500D01*
X108436365Y-85712696D01*
X108576240Y-85639283D01*
X108694483Y-85534530D01*
X108784220Y-85404523D01*
X108840237Y-85256818D01*
X108840237Y-85256817D01*
X108840238Y-85256815D01*
X108859278Y-85100003D01*
X108859278Y-85099996D01*
X108840238Y-84943184D01*
X108827451Y-84909468D01*
X108784220Y-84795477D01*
X108784216Y-84795472D01*
X108784216Y-84795470D01*
X108694483Y-84665470D01*
X108694481Y-84665468D01*
X108621947Y-84601209D01*
X108584221Y-84541065D01*
X108579500Y-84506896D01*
X108579500Y-70119843D01*
X108599502Y-70051722D01*
X108616405Y-70030748D01*
X109813150Y-68834003D01*
X110850722Y-68834003D01*
X110869761Y-68990815D01*
X110887054Y-69036411D01*
X110925780Y-69138523D01*
X110925781Y-69138525D01*
X110925782Y-69138526D01*
X110925783Y-69138529D01*
X111015516Y-69268529D01*
X111015522Y-69268535D01*
X111088052Y-69332790D01*
X111125778Y-69392934D01*
X111130500Y-69427103D01*
X111130500Y-90117989D01*
X111127818Y-90143846D01*
X111125632Y-90154267D01*
X111129532Y-90185546D01*
X111130495Y-90201057D01*
X111130499Y-90201113D01*
X111133915Y-90221584D01*
X111134665Y-90226732D01*
X111141133Y-90278621D01*
X111143383Y-90286180D01*
X111145934Y-90293611D01*
X111170813Y-90339583D01*
X111173195Y-90344210D01*
X111196173Y-90391210D01*
X111200755Y-90397627D01*
X111205576Y-90403822D01*
X111244069Y-90439257D01*
X111247826Y-90442863D01*
X116210595Y-95405632D01*
X116244621Y-95467944D01*
X116247500Y-95494727D01*
X116247500Y-97774989D01*
X116244818Y-97800846D01*
X116242632Y-97811267D01*
X116246532Y-97842546D01*
X116247495Y-97858057D01*
X116247499Y-97858113D01*
X116250915Y-97878584D01*
X116251665Y-97883732D01*
X116258133Y-97935621D01*
X116260383Y-97943180D01*
X116262934Y-97950611D01*
X116287813Y-97996583D01*
X116290195Y-98001210D01*
X116313173Y-98048210D01*
X116317755Y-98054627D01*
X116322576Y-98060822D01*
X116361069Y-98096257D01*
X116364826Y-98099863D01*
X119710793Y-101445830D01*
X119744819Y-101508142D01*
X119746779Y-101550112D01*
X119740722Y-101599997D01*
X119740722Y-101600003D01*
X119759761Y-101756815D01*
X119787771Y-101830670D01*
X119815780Y-101904523D01*
X119815781Y-101904525D01*
X119815782Y-101904526D01*
X119815783Y-101904529D01*
X119905516Y-102034529D01*
X119905517Y-102034530D01*
X120023760Y-102139283D01*
X120163635Y-102212696D01*
X120163636Y-102212696D01*
X120163638Y-102212697D01*
X120240325Y-102231598D01*
X120317015Y-102250500D01*
X120317017Y-102250500D01*
X120474983Y-102250500D01*
X120474985Y-102250500D01*
X120628365Y-102212696D01*
X120768240Y-102139283D01*
X120886483Y-102034530D01*
X120976220Y-101904523D01*
X121032237Y-101756818D01*
X121032237Y-101756817D01*
X121032238Y-101756815D01*
X121051278Y-101600003D01*
X121051278Y-101599996D01*
X121032238Y-101443184D01*
X121024392Y-101422498D01*
X120976220Y-101295477D01*
X120976216Y-101295472D01*
X120976216Y-101295470D01*
X120886483Y-101165470D01*
X120886481Y-101165468D01*
X120768240Y-101060717D01*
X120628365Y-100987304D01*
X120628361Y-100987302D01*
X120474987Y-100949500D01*
X120474985Y-100949500D01*
X120328728Y-100949500D01*
X120260607Y-100929498D01*
X120239633Y-100912595D01*
X119969715Y-100642677D01*
X130649500Y-100642677D01*
X130664033Y-100715739D01*
X130664034Y-100715740D01*
X130719399Y-100798601D01*
X130802260Y-100853966D01*
X130875326Y-100868500D01*
X133024674Y-100868500D01*
X133097740Y-100853966D01*
X133180601Y-100798601D01*
X133235966Y-100715740D01*
X133250500Y-100642674D01*
X133250500Y-99568000D01*
X135724532Y-99568000D01*
X135744365Y-99794695D01*
X135803260Y-100014493D01*
X135803262Y-100014498D01*
X135899433Y-100220737D01*
X136029948Y-100407134D01*
X136029957Y-100407144D01*
X136190855Y-100568042D01*
X136190865Y-100568051D01*
X136377262Y-100698566D01*
X136377261Y-100698566D01*
X136414089Y-100715739D01*
X136583504Y-100794739D01*
X136803308Y-100853635D01*
X137030000Y-100873468D01*
X137256692Y-100853635D01*
X137476496Y-100794739D01*
X137682734Y-100698568D01*
X137728411Y-100666585D01*
X137869134Y-100568051D01*
X137869136Y-100568048D01*
X137869139Y-100568047D01*
X138030047Y-100407139D01*
X138160568Y-100220734D01*
X138256739Y-100014496D01*
X138315635Y-99794692D01*
X138335468Y-99568000D01*
X138315635Y-99341308D01*
X138256739Y-99121504D01*
X138160568Y-98915266D01*
X138160567Y-98915265D01*
X138160566Y-98915262D01*
X138030051Y-98728865D01*
X138030042Y-98728855D01*
X137869144Y-98567957D01*
X137869134Y-98567948D01*
X137682737Y-98437433D01*
X137682738Y-98437433D01*
X137476498Y-98341262D01*
X137476493Y-98341260D01*
X137256695Y-98282365D01*
X137030000Y-98262532D01*
X136803304Y-98282365D01*
X136583506Y-98341260D01*
X136583501Y-98341262D01*
X136377262Y-98437433D01*
X136190865Y-98567948D01*
X136190855Y-98567957D01*
X136029957Y-98728855D01*
X136029948Y-98728865D01*
X135899433Y-98915262D01*
X135803262Y-99121501D01*
X135803260Y-99121506D01*
X135744365Y-99341304D01*
X135724532Y-99568000D01*
X133250500Y-99568000D01*
X133250500Y-98493326D01*
X133235966Y-98420260D01*
X133180601Y-98337399D01*
X133125235Y-98300405D01*
X133097739Y-98282033D01*
X133024677Y-98267500D01*
X133024674Y-98267500D01*
X130875326Y-98267500D01*
X130875322Y-98267500D01*
X130802260Y-98282033D01*
X130719399Y-98337399D01*
X130664033Y-98420260D01*
X130649500Y-98493322D01*
X130649500Y-100642677D01*
X119969715Y-100642677D01*
X117035405Y-97708367D01*
X117001379Y-97646055D01*
X116998500Y-97619272D01*
X116998500Y-95339010D01*
X117001181Y-95313155D01*
X117003367Y-95302732D01*
X116999467Y-95271450D01*
X116998503Y-95255929D01*
X116998501Y-95255894D01*
X116998500Y-95255886D01*
X116995084Y-95235417D01*
X116994337Y-95230287D01*
X116987866Y-95178378D01*
X116987866Y-95178374D01*
X116987862Y-95178367D01*
X116985624Y-95170845D01*
X116983065Y-95163392D01*
X116983065Y-95163390D01*
X116958176Y-95117399D01*
X116955803Y-95112787D01*
X116932827Y-95065790D01*
X116928248Y-95059377D01*
X116923422Y-95053177D01*
X116884929Y-95017741D01*
X116881172Y-95014135D01*
X111918405Y-90051367D01*
X111884379Y-89989055D01*
X111881500Y-89962272D01*
X111881500Y-72136003D01*
X113644722Y-72136003D01*
X113663761Y-72292815D01*
X113691771Y-72366670D01*
X113719780Y-72440523D01*
X113719781Y-72440525D01*
X113719782Y-72440526D01*
X113719783Y-72440529D01*
X113809516Y-72570529D01*
X113809522Y-72570535D01*
X113882052Y-72634790D01*
X113919778Y-72694934D01*
X113924500Y-72729103D01*
X113924500Y-88857294D01*
X113921818Y-88883151D01*
X113919632Y-88893572D01*
X113923532Y-88924851D01*
X113924495Y-88940362D01*
X113924499Y-88940418D01*
X113927915Y-88960889D01*
X113928665Y-88966037D01*
X113935133Y-89017926D01*
X113937383Y-89025485D01*
X113939934Y-89032916D01*
X113964813Y-89078888D01*
X113967195Y-89083515D01*
X113990173Y-89130515D01*
X113994755Y-89136932D01*
X113999576Y-89143127D01*
X114038068Y-89178561D01*
X114041825Y-89182167D01*
X116433397Y-91573740D01*
X116449784Y-91593918D01*
X116455610Y-91602836D01*
X116480486Y-91622197D01*
X116492113Y-91632465D01*
X116492181Y-91632524D01*
X116509070Y-91644581D01*
X116513237Y-91647687D01*
X116554506Y-91679809D01*
X116554513Y-91679811D01*
X116561437Y-91683559D01*
X116568493Y-91687008D01*
X116568496Y-91687010D01*
X116618628Y-91701934D01*
X116623538Y-91703507D01*
X116673035Y-91720500D01*
X116673036Y-91720500D01*
X116680776Y-91721792D01*
X116688607Y-91722768D01*
X116740839Y-91720607D01*
X116746046Y-91720500D01*
X124258294Y-91720500D01*
X124284152Y-91723181D01*
X124294573Y-91725367D01*
X124325853Y-91721467D01*
X124341333Y-91720506D01*
X124341401Y-91720500D01*
X124341419Y-91720500D01*
X124361894Y-91717082D01*
X124366983Y-91716340D01*
X124418931Y-91709866D01*
X124418932Y-91709865D01*
X124418935Y-91709865D01*
X124426441Y-91707630D01*
X124433911Y-91705065D01*
X124433915Y-91705065D01*
X124479944Y-91680154D01*
X124484460Y-91677829D01*
X124531516Y-91654826D01*
X124531520Y-91654822D01*
X124537908Y-91650261D01*
X124544129Y-91645420D01*
X124544131Y-91645419D01*
X124544903Y-91644581D01*
X124579551Y-91606942D01*
X124583134Y-91603206D01*
X125328938Y-90857404D01*
X125391250Y-90823379D01*
X125418033Y-90820500D01*
X125483983Y-90820500D01*
X125483985Y-90820500D01*
X125637365Y-90782696D01*
X125777240Y-90709283D01*
X125895483Y-90604530D01*
X125985220Y-90474523D01*
X126041237Y-90326818D01*
X126041237Y-90326817D01*
X126041238Y-90326815D01*
X126060278Y-90170003D01*
X126060278Y-90169996D01*
X126041238Y-90013184D01*
X126008688Y-89927358D01*
X125985220Y-89865477D01*
X125985216Y-89865472D01*
X125985216Y-89865470D01*
X125895483Y-89735470D01*
X125895481Y-89735468D01*
X125777240Y-89630717D01*
X125637365Y-89557304D01*
X125637361Y-89557302D01*
X125483987Y-89519500D01*
X125483985Y-89519500D01*
X125326015Y-89519500D01*
X125326012Y-89519500D01*
X125172638Y-89557302D01*
X125172634Y-89557304D01*
X125032759Y-89630717D01*
X124914518Y-89735468D01*
X124914516Y-89735470D01*
X124824783Y-89865470D01*
X124824782Y-89865473D01*
X124768761Y-90013184D01*
X124749722Y-90169996D01*
X124749722Y-90170003D01*
X124764473Y-90291495D01*
X124752828Y-90361530D01*
X124728488Y-90395777D01*
X124191672Y-90932595D01*
X124129359Y-90966620D01*
X124102576Y-90969500D01*
X123242640Y-90969500D01*
X123174519Y-90949498D01*
X123128026Y-90895842D01*
X123117922Y-90825568D01*
X123147416Y-90760988D01*
X123184082Y-90731933D01*
X123227240Y-90709283D01*
X123345483Y-90604530D01*
X123435220Y-90474523D01*
X123491237Y-90326818D01*
X123491237Y-90326817D01*
X123491238Y-90326815D01*
X123510278Y-90170003D01*
X123510278Y-90169996D01*
X123491238Y-90013184D01*
X123458688Y-89927358D01*
X123435220Y-89865477D01*
X123435216Y-89865472D01*
X123435216Y-89865470D01*
X123345483Y-89735470D01*
X123345481Y-89735468D01*
X123227240Y-89630717D01*
X123087365Y-89557304D01*
X123087361Y-89557302D01*
X122933987Y-89519500D01*
X122933985Y-89519500D01*
X122776015Y-89519500D01*
X122776012Y-89519500D01*
X122622638Y-89557302D01*
X122622634Y-89557304D01*
X122482759Y-89630717D01*
X122364518Y-89735468D01*
X122364516Y-89735470D01*
X122274783Y-89865470D01*
X122274782Y-89865473D01*
X122251312Y-89927358D01*
X122208453Y-89983959D01*
X122141798Y-90008403D01*
X122072507Y-89992931D01*
X122022582Y-89942453D01*
X122015688Y-89927358D01*
X121992220Y-89865477D01*
X121992216Y-89865472D01*
X121992216Y-89865470D01*
X121902483Y-89735470D01*
X121902481Y-89735468D01*
X121829947Y-89671209D01*
X121792221Y-89611065D01*
X121787500Y-89576896D01*
X121787500Y-78693727D01*
X121807502Y-78625606D01*
X121824405Y-78604632D01*
X122245332Y-78183705D01*
X126720746Y-73708290D01*
X126740919Y-73691909D01*
X126749836Y-73686084D01*
X126769198Y-73661206D01*
X126779485Y-73649559D01*
X126779519Y-73649519D01*
X126779520Y-73649518D01*
X126791589Y-73632611D01*
X126794662Y-73628488D01*
X126826809Y-73587189D01*
X126826811Y-73587181D01*
X126830556Y-73580263D01*
X126834006Y-73573203D01*
X126834010Y-73573199D01*
X126848937Y-73523056D01*
X126850512Y-73518143D01*
X126867500Y-73468660D01*
X126867500Y-73468652D01*
X126868794Y-73460899D01*
X126869768Y-73453087D01*
X126867608Y-73400856D01*
X126867500Y-73395649D01*
X126867500Y-72475103D01*
X126887502Y-72406982D01*
X126909948Y-72380790D01*
X126982477Y-72316535D01*
X126982483Y-72316530D01*
X127072220Y-72186523D01*
X127128237Y-72038818D01*
X127128237Y-72038817D01*
X127128238Y-72038815D01*
X127147278Y-71882003D01*
X127147278Y-71881996D01*
X127128238Y-71725184D01*
X127106940Y-71669027D01*
X127072220Y-71577477D01*
X127072216Y-71577472D01*
X127072216Y-71577470D01*
X126982483Y-71447470D01*
X126982481Y-71447468D01*
X126864240Y-71342717D01*
X126724365Y-71269304D01*
X126724361Y-71269302D01*
X126570987Y-71231500D01*
X126570985Y-71231500D01*
X126413015Y-71231500D01*
X126413012Y-71231500D01*
X126259638Y-71269302D01*
X126259634Y-71269304D01*
X126119759Y-71342717D01*
X126001518Y-71447468D01*
X126001516Y-71447470D01*
X125911783Y-71577470D01*
X125911782Y-71577473D01*
X125911781Y-71577475D01*
X125911780Y-71577477D01*
X125896091Y-71618844D01*
X125855761Y-71725184D01*
X125836722Y-71881996D01*
X125836722Y-71882003D01*
X125855761Y-72038815D01*
X125883771Y-72112670D01*
X125911780Y-72186523D01*
X125911781Y-72186525D01*
X125911782Y-72186526D01*
X125911783Y-72186529D01*
X126001516Y-72316529D01*
X126001522Y-72316535D01*
X126074052Y-72380790D01*
X126111778Y-72440934D01*
X126116500Y-72475103D01*
X126116500Y-73198271D01*
X126096498Y-73266392D01*
X126079595Y-73287366D01*
X121183255Y-78183705D01*
X121163080Y-78200090D01*
X121154166Y-78205914D01*
X121154165Y-78205915D01*
X121134797Y-78230797D01*
X121124489Y-78242472D01*
X121124481Y-78242479D01*
X121124478Y-78242482D01*
X121112417Y-78259375D01*
X121109308Y-78263546D01*
X121077190Y-78304811D01*
X121073448Y-78311726D01*
X121069988Y-78318804D01*
X121055075Y-78368895D01*
X121053488Y-78373849D01*
X121036499Y-78423339D01*
X121035209Y-78431073D01*
X121034231Y-78438915D01*
X121036392Y-78491142D01*
X121036500Y-78496350D01*
X121036500Y-89576896D01*
X121016498Y-89645017D01*
X120994053Y-89671209D01*
X120921518Y-89735468D01*
X120921516Y-89735470D01*
X120831783Y-89865470D01*
X120831782Y-89865473D01*
X120775761Y-90013184D01*
X120756722Y-90169996D01*
X120756722Y-90170003D01*
X120775761Y-90326815D01*
X120784107Y-90348819D01*
X120789561Y-90419606D01*
X120755879Y-90482104D01*
X120693755Y-90516471D01*
X120666295Y-90519500D01*
X119795422Y-90519500D01*
X119727301Y-90499498D01*
X119706327Y-90482595D01*
X118388727Y-89164995D01*
X118354701Y-89102683D01*
X118359766Y-89031868D01*
X118402313Y-88975032D01*
X118419252Y-88964341D01*
X118482240Y-88931283D01*
X118600483Y-88826530D01*
X118690220Y-88696523D01*
X118746237Y-88548818D01*
X118746237Y-88548817D01*
X118746238Y-88548815D01*
X118765278Y-88392002D01*
X118765278Y-88391999D01*
X118759220Y-88342113D01*
X118770864Y-88272078D01*
X118795203Y-88237832D01*
X119100742Y-87932293D01*
X119120918Y-87915909D01*
X119129836Y-87910084D01*
X119149199Y-87885204D01*
X119159471Y-87873574D01*
X119159514Y-87873522D01*
X119159520Y-87873517D01*
X119171584Y-87856618D01*
X119174663Y-87852488D01*
X119206809Y-87811189D01*
X119206810Y-87811185D01*
X119210554Y-87804266D01*
X119214006Y-87797203D01*
X119214010Y-87797199D01*
X119228937Y-87747056D01*
X119230512Y-87742143D01*
X119231721Y-87738621D01*
X119247500Y-87692660D01*
X119247500Y-87692652D01*
X119248794Y-87684899D01*
X119249768Y-87677087D01*
X119247608Y-87624856D01*
X119247500Y-87619649D01*
X119247500Y-74982010D01*
X119250181Y-74956154D01*
X119252367Y-74945732D01*
X119248467Y-74914451D01*
X119247503Y-74898929D01*
X119247501Y-74898894D01*
X119247220Y-74897210D01*
X119244084Y-74878417D01*
X119243337Y-74873287D01*
X119236866Y-74821378D01*
X119236866Y-74821374D01*
X119236862Y-74821367D01*
X119234624Y-74813845D01*
X119232065Y-74806392D01*
X119232065Y-74806390D01*
X119207176Y-74760399D01*
X119204803Y-74755787D01*
X119181827Y-74708790D01*
X119177248Y-74702377D01*
X119172422Y-74696177D01*
X119167391Y-74691546D01*
X119133943Y-74660754D01*
X119130185Y-74657148D01*
X119030404Y-74557366D01*
X118996379Y-74495054D01*
X118993500Y-74468271D01*
X118993500Y-68919103D01*
X119013502Y-68850982D01*
X119035948Y-68824790D01*
X119108477Y-68760535D01*
X119108483Y-68760530D01*
X119198220Y-68630523D01*
X119254237Y-68482818D01*
X119254237Y-68482817D01*
X119254238Y-68482815D01*
X119273278Y-68326003D01*
X119273278Y-68325996D01*
X119254238Y-68169184D01*
X119246392Y-68148498D01*
X119198220Y-68021477D01*
X119198216Y-68021472D01*
X119198216Y-68021470D01*
X119108483Y-67891470D01*
X119108481Y-67891468D01*
X118990240Y-67786717D01*
X118850365Y-67713304D01*
X118850361Y-67713302D01*
X118696987Y-67675500D01*
X118696985Y-67675500D01*
X118539015Y-67675500D01*
X118539012Y-67675500D01*
X118385638Y-67713302D01*
X118385634Y-67713304D01*
X118245757Y-67786718D01*
X118245756Y-67786719D01*
X118192428Y-67833963D01*
X118128175Y-67864163D01*
X118057794Y-67854831D01*
X118003632Y-67808930D01*
X117982884Y-67741032D01*
X117983795Y-67724463D01*
X118003278Y-67564003D01*
X118003278Y-67563996D01*
X117984238Y-67407184D01*
X117976392Y-67386498D01*
X117928220Y-67259477D01*
X117928216Y-67259472D01*
X117928216Y-67259470D01*
X117838483Y-67129470D01*
X117838481Y-67129468D01*
X117720240Y-67024717D01*
X117580365Y-66951304D01*
X117580361Y-66951302D01*
X117426987Y-66913500D01*
X117426985Y-66913500D01*
X117269015Y-66913500D01*
X117269012Y-66913500D01*
X117115638Y-66951302D01*
X117115634Y-66951304D01*
X116975759Y-67024717D01*
X116857517Y-67129469D01*
X116854340Y-67134073D01*
X116799184Y-67178774D01*
X116750642Y-67188500D01*
X116504127Y-67188500D01*
X116478269Y-67185818D01*
X116474917Y-67185115D01*
X116467845Y-67183632D01*
X116439458Y-67187171D01*
X116436566Y-67187532D01*
X116421038Y-67188496D01*
X116420993Y-67188500D01*
X116400530Y-67191914D01*
X116395385Y-67192664D01*
X116343494Y-67199133D01*
X116343491Y-67199133D01*
X116343490Y-67199134D01*
X116343489Y-67199134D01*
X116335945Y-67201380D01*
X116328506Y-67203934D01*
X116282529Y-67228814D01*
X116277908Y-67231193D01*
X116230906Y-67254173D01*
X116224504Y-67258743D01*
X116218290Y-67263580D01*
X116182857Y-67302069D01*
X116179254Y-67305823D01*
X115087255Y-68397821D01*
X115067080Y-68414206D01*
X115058166Y-68420030D01*
X115058165Y-68420031D01*
X115038797Y-68444913D01*
X115028489Y-68456588D01*
X115028481Y-68456595D01*
X115028478Y-68456598D01*
X115016417Y-68473491D01*
X115013308Y-68477662D01*
X114981190Y-68518927D01*
X114977448Y-68525842D01*
X114973988Y-68532920D01*
X114959075Y-68583011D01*
X114957488Y-68587965D01*
X114940499Y-68637455D01*
X114939209Y-68645189D01*
X114938231Y-68653031D01*
X114940392Y-68705258D01*
X114940500Y-68710466D01*
X114940500Y-71554413D01*
X114920498Y-71622534D01*
X114866842Y-71669027D01*
X114796568Y-71679131D01*
X114731988Y-71649637D01*
X114730947Y-71648726D01*
X114672240Y-71596717D01*
X114532365Y-71523304D01*
X114532361Y-71523302D01*
X114378987Y-71485500D01*
X114378985Y-71485500D01*
X114221015Y-71485500D01*
X114221012Y-71485500D01*
X114067638Y-71523302D01*
X114067634Y-71523304D01*
X113927759Y-71596717D01*
X113809518Y-71701468D01*
X113809516Y-71701470D01*
X113719783Y-71831470D01*
X113719782Y-71831473D01*
X113663761Y-71979184D01*
X113644722Y-72135996D01*
X113644722Y-72136003D01*
X111881500Y-72136003D01*
X111881500Y-69427103D01*
X111901502Y-69358982D01*
X111923948Y-69332790D01*
X111977498Y-69285348D01*
X111996483Y-69268530D01*
X112086220Y-69138523D01*
X112142237Y-68990818D01*
X112142237Y-68990817D01*
X112142238Y-68990815D01*
X112161278Y-68834003D01*
X112161278Y-68833996D01*
X112142238Y-68677184D01*
X112127171Y-68637456D01*
X112086220Y-68529477D01*
X112086216Y-68529472D01*
X112086216Y-68529470D01*
X111996483Y-68399470D01*
X111996481Y-68399468D01*
X111878240Y-68294717D01*
X111738365Y-68221304D01*
X111738361Y-68221302D01*
X111584987Y-68183500D01*
X111584985Y-68183500D01*
X111427015Y-68183500D01*
X111427012Y-68183500D01*
X111273638Y-68221302D01*
X111273634Y-68221304D01*
X111133759Y-68294717D01*
X111015518Y-68399468D01*
X111015516Y-68399470D01*
X110925783Y-68529470D01*
X110925782Y-68529473D01*
X110925781Y-68529475D01*
X110925780Y-68529477D01*
X110910091Y-68570844D01*
X110869761Y-68677184D01*
X110850722Y-68833996D01*
X110850722Y-68834003D01*
X109813150Y-68834003D01*
X113115150Y-65532003D01*
X126090722Y-65532003D01*
X126109761Y-65688815D01*
X126137771Y-65762670D01*
X126165780Y-65836523D01*
X126165781Y-65836525D01*
X126165782Y-65836526D01*
X126165783Y-65836529D01*
X126253220Y-65963202D01*
X126255517Y-65966530D01*
X126373760Y-66071283D01*
X126513635Y-66144696D01*
X126513636Y-66144696D01*
X126513638Y-66144697D01*
X126590325Y-66163598D01*
X126667015Y-66182500D01*
X126667017Y-66182500D01*
X126813273Y-66182500D01*
X126881394Y-66202502D01*
X126902368Y-66219405D01*
X129889595Y-69206632D01*
X129923621Y-69268944D01*
X129926500Y-69295727D01*
X129926500Y-84750896D01*
X129906498Y-84819017D01*
X129884053Y-84845209D01*
X129811518Y-84909468D01*
X129811516Y-84909470D01*
X129721783Y-85039470D01*
X129721782Y-85039473D01*
X129665761Y-85187184D01*
X129646722Y-85343996D01*
X129646722Y-85344003D01*
X129665761Y-85500815D01*
X129693771Y-85574670D01*
X129721780Y-85648523D01*
X129721781Y-85648525D01*
X129721782Y-85648526D01*
X129721783Y-85648529D01*
X129792169Y-85750500D01*
X129811517Y-85778530D01*
X129929760Y-85883283D01*
X130069635Y-85956696D01*
X130069636Y-85956696D01*
X130069638Y-85956697D01*
X130146325Y-85975598D01*
X130223015Y-85994500D01*
X130223017Y-85994500D01*
X130380983Y-85994500D01*
X130380985Y-85994500D01*
X130534365Y-85956696D01*
X130674240Y-85883283D01*
X130792483Y-85778530D01*
X130882220Y-85648523D01*
X130938237Y-85500818D01*
X130938237Y-85500817D01*
X130938238Y-85500815D01*
X130957278Y-85344003D01*
X130957278Y-85343996D01*
X130938238Y-85187184D01*
X130905173Y-85100000D01*
X130882220Y-85039477D01*
X130882216Y-85039472D01*
X130882216Y-85039470D01*
X130792483Y-84909470D01*
X130792481Y-84909468D01*
X130719947Y-84845209D01*
X130682221Y-84785065D01*
X130677500Y-84750896D01*
X130677500Y-69140009D01*
X130680181Y-69114153D01*
X130682367Y-69103731D01*
X130678468Y-69072452D01*
X130677504Y-69056932D01*
X130677500Y-69056889D01*
X130677500Y-69056886D01*
X130674083Y-69036411D01*
X130673336Y-69031291D01*
X130666865Y-68979374D01*
X130666863Y-68979371D01*
X130664619Y-68971833D01*
X130662064Y-68964388D01*
X130637184Y-68918414D01*
X130634801Y-68913784D01*
X130611825Y-68866786D01*
X130607269Y-68860405D01*
X130602421Y-68854176D01*
X130598951Y-68850982D01*
X130563937Y-68818748D01*
X130560185Y-68815147D01*
X127431206Y-65686168D01*
X127397180Y-65623856D01*
X127395220Y-65581889D01*
X127401278Y-65532000D01*
X127401278Y-65531996D01*
X127382238Y-65375184D01*
X127350487Y-65291465D01*
X127326220Y-65227477D01*
X127326216Y-65227472D01*
X127326216Y-65227470D01*
X127236483Y-65097470D01*
X127236481Y-65097468D01*
X127116655Y-64991313D01*
X127078929Y-64931169D01*
X127079709Y-64860177D01*
X127116655Y-64802687D01*
X127118240Y-64801283D01*
X127236483Y-64696530D01*
X127239660Y-64691926D01*
X127294816Y-64647226D01*
X127343358Y-64637500D01*
X129341578Y-64637500D01*
X129409699Y-64657502D01*
X129430673Y-64674405D01*
X132673479Y-67917211D01*
X132707505Y-67979523D01*
X132710384Y-68006306D01*
X132710384Y-79449989D01*
X132707702Y-79475846D01*
X132705516Y-79486267D01*
X132709416Y-79517546D01*
X132710379Y-79533057D01*
X132710383Y-79533113D01*
X132713799Y-79553584D01*
X132714549Y-79558732D01*
X132721017Y-79610621D01*
X132723267Y-79618180D01*
X132725818Y-79625611D01*
X132750697Y-79671583D01*
X132753079Y-79676210D01*
X132776057Y-79723210D01*
X132780639Y-79729627D01*
X132785460Y-79735822D01*
X132823953Y-79771257D01*
X132827710Y-79774863D01*
X135223595Y-82170748D01*
X135257621Y-82233060D01*
X135260500Y-82259843D01*
X135260500Y-87290896D01*
X135240498Y-87359017D01*
X135218053Y-87385209D01*
X135145518Y-87449468D01*
X135145516Y-87449470D01*
X135055783Y-87579470D01*
X135055782Y-87579473D01*
X134999761Y-87727184D01*
X134980722Y-87883996D01*
X134980722Y-87884003D01*
X134999761Y-88040815D01*
X135017458Y-88087477D01*
X135055780Y-88188523D01*
X135055781Y-88188525D01*
X135055782Y-88188526D01*
X135055783Y-88188529D01*
X135145516Y-88318529D01*
X135145518Y-88318531D01*
X135196397Y-88363605D01*
X135263760Y-88423283D01*
X135403635Y-88496696D01*
X135403636Y-88496696D01*
X135403638Y-88496697D01*
X135480325Y-88515598D01*
X135557015Y-88534500D01*
X135557017Y-88534500D01*
X135714983Y-88534500D01*
X135714985Y-88534500D01*
X135868365Y-88496696D01*
X136008240Y-88423283D01*
X136126483Y-88318530D01*
X136216220Y-88188523D01*
X136272237Y-88040818D01*
X136272237Y-88040817D01*
X136272238Y-88040815D01*
X136291278Y-87884003D01*
X136291278Y-87883996D01*
X136272238Y-87727184D01*
X136259146Y-87692664D01*
X136216220Y-87579477D01*
X136216216Y-87579472D01*
X136216216Y-87579470D01*
X136126483Y-87449470D01*
X136126481Y-87449468D01*
X136053947Y-87385209D01*
X136016221Y-87325065D01*
X136011500Y-87290896D01*
X136011500Y-82104126D01*
X136014181Y-82078271D01*
X136016367Y-82067848D01*
X136012467Y-82036566D01*
X136011504Y-82021051D01*
X136011500Y-82021010D01*
X136011500Y-82021002D01*
X136008077Y-82000494D01*
X136007341Y-81995445D01*
X136000866Y-81943491D01*
X136000865Y-81943489D01*
X136000865Y-81943487D01*
X135998623Y-81935958D01*
X135996066Y-81928508D01*
X135971188Y-81882539D01*
X135968804Y-81877907D01*
X135945825Y-81830903D01*
X135941258Y-81824507D01*
X135936421Y-81818292D01*
X135897930Y-81782857D01*
X135894174Y-81779252D01*
X133498289Y-79383367D01*
X133464263Y-79321055D01*
X133461384Y-79294272D01*
X133461384Y-67850589D01*
X133464065Y-67824733D01*
X133466251Y-67814311D01*
X133462351Y-67783030D01*
X133461387Y-67767508D01*
X133461385Y-67767473D01*
X133458141Y-67748034D01*
X133457968Y-67746996D01*
X133457221Y-67741866D01*
X133450750Y-67689957D01*
X133450750Y-67689953D01*
X133450746Y-67689946D01*
X133448508Y-67682424D01*
X133445949Y-67674971D01*
X133445949Y-67674969D01*
X133421060Y-67628978D01*
X133418687Y-67624366D01*
X133395711Y-67577369D01*
X133391132Y-67570956D01*
X133386306Y-67564756D01*
X133385480Y-67563996D01*
X133347813Y-67529320D01*
X133344056Y-67525714D01*
X129851601Y-64033258D01*
X129835214Y-64013080D01*
X129829388Y-64004163D01*
X129823855Y-63999856D01*
X129804509Y-63984799D01*
X129792886Y-63974534D01*
X129792826Y-63974483D01*
X129792823Y-63974480D01*
X129790416Y-63972761D01*
X129775928Y-63962417D01*
X129771755Y-63959305D01*
X129730493Y-63927190D01*
X129723582Y-63923450D01*
X129716505Y-63919990D01*
X129666379Y-63905066D01*
X129661438Y-63903483D01*
X129611965Y-63886500D01*
X129611963Y-63886500D01*
X129611960Y-63886499D01*
X129604219Y-63885207D01*
X129596392Y-63884231D01*
X129544161Y-63886392D01*
X129538954Y-63886500D01*
X127343358Y-63886500D01*
X127275237Y-63866498D01*
X127239660Y-63832073D01*
X127236482Y-63827469D01*
X127118240Y-63722717D01*
X126978365Y-63649304D01*
X126978361Y-63649302D01*
X126824987Y-63611500D01*
X126824985Y-63611500D01*
X126667015Y-63611500D01*
X126667012Y-63611500D01*
X126513638Y-63649302D01*
X126513634Y-63649304D01*
X126373759Y-63722717D01*
X126255518Y-63827468D01*
X126255516Y-63827470D01*
X126165783Y-63957470D01*
X126165782Y-63957473D01*
X126165781Y-63957475D01*
X126165780Y-63957477D01*
X126150091Y-63998844D01*
X126109761Y-64105184D01*
X126090722Y-64261996D01*
X126090722Y-64262003D01*
X126109761Y-64418815D01*
X126137771Y-64492670D01*
X126165780Y-64566523D01*
X126165781Y-64566525D01*
X126165782Y-64566526D01*
X126165783Y-64566529D01*
X126255516Y-64696529D01*
X126255518Y-64696531D01*
X126375344Y-64802687D01*
X126413070Y-64862831D01*
X126412290Y-64933824D01*
X126375344Y-64991313D01*
X126255518Y-65097468D01*
X126255516Y-65097470D01*
X126165783Y-65227470D01*
X126165782Y-65227473D01*
X126109761Y-65375184D01*
X126090722Y-65531996D01*
X126090722Y-65532003D01*
X113115150Y-65532003D01*
X117020748Y-61626405D01*
X117083060Y-61592379D01*
X117109843Y-61589500D01*
X135785576Y-61589500D01*
X135853697Y-61609502D01*
X135898365Y-61659335D01*
X135966327Y-61795821D01*
X135966328Y-61795822D01*
X135966329Y-61795824D01*
X136089234Y-61958578D01*
X136239959Y-62095981D01*
X136239960Y-62095982D01*
X136413351Y-62203341D01*
X136413356Y-62203343D01*
X136413363Y-62203348D01*
X136480280Y-62229271D01*
X136536574Y-62272529D01*
X136560545Y-62339356D01*
X136544582Y-62408535D01*
X136493751Y-62458101D01*
X136475676Y-62465935D01*
X136358628Y-62506118D01*
X136160699Y-62613231D01*
X136160698Y-62613232D01*
X135983097Y-62751465D01*
X135830674Y-62917041D01*
X135707580Y-63105451D01*
X135617179Y-63311543D01*
X135617176Y-63311550D01*
X135569455Y-63499999D01*
X135569456Y-63500000D01*
X136474884Y-63500000D01*
X136446507Y-63544156D01*
X136406000Y-63682111D01*
X136406000Y-63825889D01*
X136446507Y-63963844D01*
X136474884Y-64008000D01*
X135569455Y-64008000D01*
X135617176Y-64196449D01*
X135617179Y-64196456D01*
X135707580Y-64402548D01*
X135830674Y-64590958D01*
X135983097Y-64756534D01*
X136160698Y-64894767D01*
X136160699Y-64894768D01*
X136194734Y-64913187D01*
X136245123Y-64963201D01*
X136260475Y-65032518D01*
X136235913Y-65099130D01*
X136194734Y-65134813D01*
X136160699Y-65153231D01*
X136160698Y-65153232D01*
X135983097Y-65291465D01*
X135830674Y-65457041D01*
X135707580Y-65645451D01*
X135617179Y-65851543D01*
X135617176Y-65851550D01*
X135569455Y-66039999D01*
X135569456Y-66040000D01*
X136474884Y-66040000D01*
X136446507Y-66084156D01*
X136406000Y-66222111D01*
X136406000Y-66365889D01*
X136446507Y-66503844D01*
X136474884Y-66548000D01*
X135569455Y-66548000D01*
X135617176Y-66736449D01*
X135617179Y-66736456D01*
X135707580Y-66942548D01*
X135830674Y-67130958D01*
X135983097Y-67296534D01*
X136160698Y-67434767D01*
X136160699Y-67434768D01*
X136275114Y-67496686D01*
X136325505Y-67546699D01*
X136340857Y-67616016D01*
X136316296Y-67682629D01*
X136259621Y-67725389D01*
X136215145Y-67733500D01*
X136031322Y-67733500D01*
X135958260Y-67748033D01*
X135875399Y-67803399D01*
X135820033Y-67886260D01*
X135805500Y-67959322D01*
X135805500Y-69708677D01*
X135820033Y-69781739D01*
X135820034Y-69781740D01*
X135875399Y-69864601D01*
X135958260Y-69919966D01*
X136031326Y-69934500D01*
X137780674Y-69934500D01*
X137853740Y-69919966D01*
X137936601Y-69864601D01*
X137991966Y-69781740D01*
X138006500Y-69708674D01*
X138006500Y-67959326D01*
X137991966Y-67886260D01*
X137936601Y-67803399D01*
X137853740Y-67748034D01*
X137853739Y-67748033D01*
X137780677Y-67733500D01*
X137780674Y-67733500D01*
X137596855Y-67733500D01*
X137528734Y-67713498D01*
X137482241Y-67659842D01*
X137472137Y-67589568D01*
X137501631Y-67524988D01*
X137536886Y-67496686D01*
X137651300Y-67434768D01*
X137651301Y-67434767D01*
X137828902Y-67296534D01*
X137981325Y-67130958D01*
X138104419Y-66942548D01*
X138194820Y-66736456D01*
X138194823Y-66736449D01*
X138242544Y-66548000D01*
X137337116Y-66548000D01*
X137365493Y-66503844D01*
X137406000Y-66365889D01*
X137406000Y-66222111D01*
X137365493Y-66084156D01*
X137337116Y-66040000D01*
X138242544Y-66040000D01*
X138242544Y-66039999D01*
X138194823Y-65851550D01*
X138194820Y-65851543D01*
X138104419Y-65645451D01*
X137981325Y-65457041D01*
X137828902Y-65291465D01*
X137651301Y-65153232D01*
X137651300Y-65153231D01*
X137617267Y-65134814D01*
X137566876Y-65084801D01*
X137551524Y-65015484D01*
X137576085Y-64948871D01*
X137617267Y-64913186D01*
X137651300Y-64894768D01*
X137651301Y-64894767D01*
X137828902Y-64756534D01*
X137981325Y-64590958D01*
X138104419Y-64402548D01*
X138194820Y-64196456D01*
X138194823Y-64196449D01*
X138242544Y-64008000D01*
X137337116Y-64008000D01*
X137365493Y-63963844D01*
X137406000Y-63825889D01*
X137406000Y-63682111D01*
X137365493Y-63544156D01*
X137337116Y-63500000D01*
X138242544Y-63500000D01*
X138242544Y-63499999D01*
X138194823Y-63311550D01*
X138194820Y-63311543D01*
X138104419Y-63105451D01*
X137981325Y-62917041D01*
X137828902Y-62751465D01*
X137651301Y-62613232D01*
X137651300Y-62613231D01*
X137453371Y-62506117D01*
X137453368Y-62506116D01*
X137336324Y-62465935D01*
X137278389Y-62424898D01*
X137251837Y-62359053D01*
X137265099Y-62289306D01*
X137313963Y-62237801D01*
X137331707Y-62229276D01*
X137398637Y-62203348D01*
X137572041Y-62095981D01*
X137722764Y-61958579D01*
X137845673Y-61795821D01*
X137936582Y-61613250D01*
X137992397Y-61417083D01*
X138011215Y-61214000D01*
X137992397Y-61010917D01*
X137936582Y-60814750D01*
X137845673Y-60632179D01*
X137845670Y-60632175D01*
X137722765Y-60469421D01*
X137572040Y-60332018D01*
X137572039Y-60332017D01*
X137398648Y-60224658D01*
X137398641Y-60224654D01*
X137398637Y-60224652D01*
X137282133Y-60179518D01*
X137208457Y-60150976D01*
X137141629Y-60138484D01*
X137007976Y-60113500D01*
X136804024Y-60113500D01*
X136703784Y-60132238D01*
X136603542Y-60150976D01*
X136456190Y-60208060D01*
X136413363Y-60224652D01*
X136413362Y-60224652D01*
X136413361Y-60224653D01*
X136413351Y-60224658D01*
X136239960Y-60332017D01*
X136239959Y-60332018D01*
X136089234Y-60469421D01*
X135966329Y-60632175D01*
X135966327Y-60632178D01*
X135966327Y-60632179D01*
X135898365Y-60768664D01*
X135850098Y-60820726D01*
X135785576Y-60838500D01*
X116954127Y-60838500D01*
X116928269Y-60835818D01*
X116924917Y-60835115D01*
X116917845Y-60833632D01*
X116889458Y-60837171D01*
X116886566Y-60837532D01*
X116871047Y-60838495D01*
X116870999Y-60838499D01*
X116850542Y-60841913D01*
X116845395Y-60842663D01*
X116793494Y-60849133D01*
X116785938Y-60851382D01*
X116778505Y-60853934D01*
X116732537Y-60878811D01*
X116727909Y-60881193D01*
X116680911Y-60904169D01*
X116674498Y-60908748D01*
X116668290Y-60913580D01*
X116632856Y-60952070D01*
X116629253Y-60955824D01*
X107975255Y-69609821D01*
X107955080Y-69626206D01*
X107946166Y-69632030D01*
X107946165Y-69632031D01*
X107926797Y-69656913D01*
X107916489Y-69668588D01*
X107916481Y-69668595D01*
X107916478Y-69668598D01*
X107904417Y-69685491D01*
X107901308Y-69689662D01*
X107869190Y-69730927D01*
X107865448Y-69737842D01*
X107861988Y-69744920D01*
X107847075Y-69795011D01*
X107845488Y-69799965D01*
X107828499Y-69849455D01*
X107827209Y-69857189D01*
X107826231Y-69865031D01*
X107828392Y-69917258D01*
X107828500Y-69922466D01*
X107828500Y-84506896D01*
X107808498Y-84575017D01*
X107786053Y-84601209D01*
X107713518Y-84665468D01*
X107713516Y-84665470D01*
X107623783Y-84795470D01*
X107623782Y-84795473D01*
X107623781Y-84795475D01*
X107623780Y-84795477D01*
X107608091Y-84836844D01*
X107567761Y-84943184D01*
X107548722Y-85099996D01*
X107548722Y-85100003D01*
X102025500Y-85100003D01*
X102025500Y-58674000D01*
X135800785Y-58674000D01*
X135819603Y-58877084D01*
X135875416Y-59073245D01*
X135875417Y-59073247D01*
X135875418Y-59073250D01*
X135966327Y-59255821D01*
X135966328Y-59255822D01*
X135966329Y-59255824D01*
X136089234Y-59418578D01*
X136239959Y-59555981D01*
X136239960Y-59555982D01*
X136413351Y-59663341D01*
X136413354Y-59663342D01*
X136413363Y-59663348D01*
X136603544Y-59737024D01*
X136804024Y-59774500D01*
X136804026Y-59774500D01*
X137007974Y-59774500D01*
X137007976Y-59774500D01*
X137208456Y-59737024D01*
X137398637Y-59663348D01*
X137572041Y-59555981D01*
X137722764Y-59418579D01*
X137845673Y-59255821D01*
X137936582Y-59073250D01*
X137992397Y-58877083D01*
X138011215Y-58674000D01*
X137992397Y-58470917D01*
X137936582Y-58274750D01*
X137845673Y-58092179D01*
X137845670Y-58092175D01*
X137722765Y-57929421D01*
X137572040Y-57792018D01*
X137572039Y-57792017D01*
X137398648Y-57684658D01*
X137398641Y-57684654D01*
X137398637Y-57684652D01*
X137282133Y-57639518D01*
X137208457Y-57610976D01*
X137141629Y-57598484D01*
X137007976Y-57573500D01*
X136804024Y-57573500D01*
X136703784Y-57592238D01*
X136603542Y-57610976D01*
X136456190Y-57668060D01*
X136413363Y-57684652D01*
X136413362Y-57684652D01*
X136413361Y-57684653D01*
X136413351Y-57684658D01*
X136239960Y-57792017D01*
X136239959Y-57792018D01*
X136089234Y-57929421D01*
X135966329Y-58092175D01*
X135875416Y-58274754D01*
X135819603Y-58470915D01*
X135800785Y-58674000D01*
X102025500Y-58674000D01*
X102025500Y-56134000D01*
X135800785Y-56134000D01*
X135819603Y-56337084D01*
X135875416Y-56533245D01*
X135875417Y-56533247D01*
X135875418Y-56533250D01*
X135966327Y-56715821D01*
X135966328Y-56715822D01*
X135966329Y-56715824D01*
X136089234Y-56878578D01*
X136239959Y-57015981D01*
X136239960Y-57015982D01*
X136413351Y-57123341D01*
X136413354Y-57123342D01*
X136413363Y-57123348D01*
X136603544Y-57197024D01*
X136804024Y-57234500D01*
X136804026Y-57234500D01*
X137007974Y-57234500D01*
X137007976Y-57234500D01*
X137208456Y-57197024D01*
X137398637Y-57123348D01*
X137572041Y-57015981D01*
X137722764Y-56878579D01*
X137845673Y-56715821D01*
X137936582Y-56533250D01*
X137992397Y-56337083D01*
X138011215Y-56134000D01*
X137992397Y-55930917D01*
X137936582Y-55734750D01*
X137845673Y-55552179D01*
X137845670Y-55552175D01*
X137722765Y-55389421D01*
X137572040Y-55252018D01*
X137572039Y-55252017D01*
X137398648Y-55144658D01*
X137398641Y-55144654D01*
X137398637Y-55144652D01*
X137282133Y-55099518D01*
X137208457Y-55070976D01*
X137141629Y-55058484D01*
X137007976Y-55033500D01*
X136804024Y-55033500D01*
X136703784Y-55052238D01*
X136603542Y-55070976D01*
X136456190Y-55128060D01*
X136413363Y-55144652D01*
X136413362Y-55144652D01*
X136413361Y-55144653D01*
X136413351Y-55144658D01*
X136239960Y-55252017D01*
X136239959Y-55252018D01*
X136089234Y-55389421D01*
X135966329Y-55552175D01*
X135875416Y-55734754D01*
X135819603Y-55930915D01*
X135800785Y-56134000D01*
X102025500Y-56134000D01*
X102025500Y-54003539D01*
X102025698Y-53996474D01*
X102041291Y-53718812D01*
X102042873Y-53704771D01*
X102088864Y-53434083D01*
X102092003Y-53420333D01*
X102168016Y-53156486D01*
X102172676Y-53143166D01*
X102277749Y-52889498D01*
X102283879Y-52876773D01*
X102416684Y-52636480D01*
X102424196Y-52624522D01*
X102583087Y-52400587D01*
X102591885Y-52389555D01*
X102774839Y-52184829D01*
X102784830Y-52174839D01*
X102936574Y-52039232D01*
X102989555Y-51991885D01*
X103000587Y-51983087D01*
X103224522Y-51824196D01*
X103236480Y-51816684D01*
X103476773Y-51683879D01*
X103489498Y-51677749D01*
X103743166Y-51572676D01*
X103756486Y-51568016D01*
X104020333Y-51492003D01*
X104034083Y-51488864D01*
X104304775Y-51442872D01*
X104318807Y-51441291D01*
X104596474Y-51425697D01*
X104603539Y-51425500D01*
X104608285Y-51425500D01*
X139391715Y-51425500D01*
X139396461Y-51425500D01*
X139403525Y-51425697D01*
G37*
G04 #@! TD.AperFunction*
M02*
